<svg width="32" height="33" viewBox="0 0 32 33" fill="none" xmlns="http://www.w3.org/2000/svg">
<path d="M24 3.8C21.65 2.35 18.95 1.5 16 1.5V3.8H24Z" fill="#ED4C5C"/>
<path d="M16 6.10005H26.8C25.95 5.25005 25 4.45005 24 3.80005H16V6.10005Z" fill="white"/>
<path d="M16 8.39998H28.65C28.1 7.54998 27.5 6.79998 26.85 6.09998H16V8.39998Z" fill="#ED4C5C"/>
<path d="M16 10.7H29.85C29.5 9.90002 29.1 9.10002 28.65 8.40002H16V10.7Z" fill="white"/>
<path d="M16 13H30.6C30.4 12.2 30.15 11.45 29.85 10.7H16V13Z" fill="#ED4C5C"/>
<path d="M16 15.35H30.95C30.9 14.55 30.75 13.8 30.6 13.05H16V15.35Z" fill="white"/>
<path d="M30.95 15.35H16V16.5H1C1 16.9 1 17.25 1.05 17.65H30.95C31 17.25 31 16.9 31 16.5C31 16.1 31 15.7 30.95 15.35Z" fill="#ED4C5C"/>
<path d="M1.3998 19.95H30.5998C30.7998 19.2 30.8998 18.45 30.9498 17.65H1.0498C1.0998 18.4 1.1998 19.2 1.3998 19.95Z" fill="white"/>
<path d="M2.15039 22.25H29.8504C30.1504 21.5 30.4004 20.75 30.6004 19.95H1.40039C1.60039 20.75 1.85039 21.5 2.15039 22.25Z" fill="#ED4C5C"/>
<path d="M3.35039 24.55H28.6504C29.1004 23.8 29.5004 23.05 29.8504 22.25H2.15039C2.50039 23.05 2.90039 23.8 3.35039 24.55Z" fill="white"/>
<path d="M5.14961 26.8501H26.8496C27.4996 26.1501 28.1496 25.35 28.6496 24.55H3.34961C3.84961 25.4 4.49961 26.1501 5.14961 26.8501Z" fill="#ED4C5C"/>
<path d="M7.95039 29.15H24.0504C25.1004 28.5 26.0004 27.7 26.8504 26.85H5.15039C6.00039 27.75 6.95039 28.5 7.95039 29.15Z" fill="white"/>
<path d="M16.0002 31.5C18.9502 31.5 21.7002 30.65 24.0502 29.15H7.9502C10.3002 30.65 13.0502 31.5 16.0002 31.5Z" fill="#ED4C5C"/>
<path d="M8 3.8C6.95 4.45 6 5.25 5.15 6.1C4.45 6.8 3.85 7.6 3.35 8.4C2.9 9.15 2.45 9.9 2.15 10.7C1.85 11.45 1.6 12.2 1.4 13C1.2 13.75 1.1 14.5 1.05 15.3C1 15.7 1 16.1 1 16.5H16V1.5C13.05 1.5 10.35 2.35 8 3.8Z" fill="#428BC1"/>
<path d="M12.5002 2L12.7502 2.75H13.5002L12.9002 3.25L13.1002 4L12.5002 3.55L11.9002 4L12.1002 3.25L11.5002 2.75H12.2502L12.5002 2ZM14.5002 5L14.7502 5.75H15.5002L14.9002 6.25L15.1002 7L14.5002 6.55L13.9002 7L14.1002 6.25L13.5002 5.75H14.2502L14.5002 5ZM10.5002 5L10.7502 5.75H11.5002L10.9002 6.25L11.1002 7L10.5002 6.55L9.9002 7L10.1002 6.25L9.5002 5.75H10.2502L10.5002 5ZM12.5002 8L12.7502 8.75H13.5002L12.9002 9.25L13.1002 10L12.5002 9.55L11.9002 10L12.1002 9.25L11.5002 8.75H12.2502L12.5002 8ZM8.5002 8L8.7502 8.75H9.5002L8.9002 9.25L9.1002 10L8.5002 9.55L7.9002 10L8.1002 9.25L7.5002 8.75H8.2502L8.5002 8ZM4.5002 8L4.7502 8.75H5.5002L4.9002 9.25L5.1002 10L4.5002 9.55L3.9002 10L4.1002 9.25L3.5002 8.75H4.2502L4.5002 8ZM14.5002 11L14.7502 11.75H15.5002L14.9002 12.25L15.1002 13L14.5002 12.55L13.9002 13L14.1002 12.25L13.5002 11.75H14.2502L14.5002 11ZM10.5002 11L10.7502 11.75H11.5002L10.9002 12.25L11.1002 13L10.5002 12.55L9.9002 13L10.1002 12.25L9.5002 11.75H10.2502L10.5002 11ZM6.5002 11L6.7502 11.75H7.5002L6.9002 12.25L7.1002 13L6.5002 12.55L5.9002 13L6.1002 12.25L5.5002 11.75H6.2502L6.5002 11ZM12.5002 14L12.7502 14.75H13.5002L12.9002 15.25L13.1002 16L12.5002 15.55L11.9002 16L12.1002 15.25L11.5002 14.75H12.2502L12.5002 14ZM8.5002 14L8.7502 14.75H9.5002L8.9002 15.25L9.1002 16L8.5002 15.55L7.9002 16L8.1002 15.25L7.5002 14.75H8.2502L8.5002 14ZM4.5002 14L4.7502 14.75H5.5002L4.9002 15.25L5.1002 16L4.5002 15.55L3.9002 16L4.1002 15.25L3.5002 14.75H4.2502L4.5002 14ZM5.9002 7L6.5002 6.55L7.1002 7L6.8502 6.25L7.4502 5.75H6.7002L6.5002 5L6.2502 5.75H5.5502L6.1502 6.2L5.9002 7ZM1.9002 13L2.5002 12.55L3.1002 13L2.8502 12.25L3.4502 11.75H2.7502L2.5002 11L2.2502 11.75H1.7502C1.7502 11.8 1.7002 11.85 1.7002 11.9L2.1002 12.2L1.9002 13Z" fill="white"/>
</svg>
