<svg width="32" height="33" viewBox="0 0 32 33" fill="none" xmlns="http://www.w3.org/2000/svg">
<path d="M16 31.5C24.2843 31.5 31 24.7843 31 16.5C31 8.21573 24.2843 1.5 16 1.5C7.71573 1.5 1 8.21573 1 16.5C1 24.7843 7.71573 31.5 16 31.5Z" fill="#2A5F9E"/>
<path d="M16 6.40002L16.35 7.50002H17.5L16.6 8.20002L16.95 9.30002L16 8.60002L15.05 9.30002L15.4 8.20002L14.5 7.50002H15.65L16 6.40002ZM16 23.4L16.35 24.5H17.5L16.6 25.15L16.95 26.3L16 25.6L15.05 26.3L15.4 25.15L14.5 24.5H15.65L16 23.4ZM20.2 22L20.55 23.1H21.75L20.8 23.8L21.15 24.9L20.2 24.2L19.25 24.9L19.65 23.8L18.7 23.1H19.85L20.2 22ZM23.1 19.1L23.45 20.2H24.65L23.7 20.9L24.05 22L23.1 21.3L22.15 22L22.55 20.9L21.6 20.2H22.75L23.1 19.1ZM24.5 14.9L24.85 16H26L25.05 16.7L25.4 17.8L24.5 17.1L23.55 17.8L23.9 16.7L22.95 16H24.1L24.5 14.9ZM23.1 10.65L23.45 11.8H24.65L23.7 12.45L24.05 13.55L23.1 12.9L22.15 13.55L22.55 12.45L21.6 11.8H22.75L23.1 10.65ZM20.2 7.75002L20.55 8.90002H21.75L20.8 9.55002L21.15 10.65L20.2 10L19.25 10.65L19.65 9.55002L18.7 8.90002H19.85L20.2 7.75002ZM11.8 22L11.45 23.1H10.25L11.2 23.8L10.85 24.9L11.8 24.2L12.75 24.9L12.35 23.8L13.3 23.1H12.15L11.8 22ZM8.9 19.1L8.55 20.2H7.35L8.3 20.9L7.95 22L8.9 21.3L9.85 22L9.45 20.9L10.4 20.2H9.25L8.9 19.1ZM7.5 14.9L7.15 16H6L6.95 16.7L6.6 17.8L7.5 17.1L8.45 17.8L8.1 16.7L9.05 16H7.9L7.5 14.9ZM8.9 10.65L8.55 11.8H7.35L8.3 12.45L7.95 13.55L8.9 12.9L9.85 13.55L9.45 12.45L10.4 11.8H9.25L8.9 10.65ZM11.8 7.75002L11.45 8.90002H10.25L11.2 9.55002L10.85 10.65L11.8 10L12.75 10.65L12.35 9.55002L13.3 8.90002H12.15L11.8 7.75002Z" fill="#FFCE31"/>
</svg>
