<svg width="32" height="33" viewBox="0 0 32 33" fill="none" xmlns="http://www.w3.org/2000/svg">
<path d="M15.9496 1.5C9.44961 1.5 3.89961 5.7 1.84961 11.5H30.1496C28.0496 5.7 22.4996 1.5 15.9496 1.5Z" fill="#F9F9F9"/>
<path d="M15.9496 31.5C22.4996 31.5 28.0496 27.3 30.0996 21.5H1.84961C3.89961 27.35 9.44961 31.5 15.9496 31.5Z" fill="#ED4C5C"/>
<path d="M1.85 11.5C1.3 13.05 1 14.75 1 16.5C1 18.25 1.3 19.95 1.85 21.5H30.15C30.7 19.95 31 18.25 31 16.5C31 14.75 30.7 13.05 30.15 11.5H1.85Z" fill="#428BC1"/>
</svg>
