<svg width="52" height="52" viewBox="0 0 52 52" fill="none" xmlns="http://www.w3.org/2000/svg">
<g filter="url(#filter0_b_1864_12475)">
<rect x="1" y="1" width="50" height="50" rx="12.6667" fill="url(#paint0_radial_1864_12475)" fill-opacity="0.2"/>
<rect x="1" y="1" width="50" height="50" rx="12.6667" stroke="#CD27AC"/>
</g>
<circle cx="19.3333" cy="21.6666" r="8.33333" fill="url(#paint1_linear_1864_12475)"/>
<circle cx="19.3333" cy="21.6666" r="8.33333" fill="url(#paint2_linear_1864_12475)"/>
<g clip-path="url(#clip0_1864_12475)">
<g filter="url(#filter1_b_1864_12475)">
<path fill-rule="evenodd" clip-rule="evenodd" d="M30.756 35.1116C33.3224 31.8389 36.5551 27.0843 36.5551 23.8985C36.5551 18.6157 32.5754 14.3333 27.6662 14.3333C22.757 14.3333 18.7773 18.6157 18.7773 23.8985C18.7773 27.0843 22.0101 31.8389 24.5765 35.1116C25.9154 36.819 26.5849 37.6727 27.6662 37.6727C28.7476 37.6727 29.4171 36.819 30.756 35.1116Z" fill="#C927AA" fill-opacity="0.35"/>
<path d="M30.8872 35.2144C32.1729 33.5749 33.6283 31.5607 34.763 29.5545C35.8941 27.5548 36.7218 25.5374 36.7218 23.8985C36.7218 18.5354 32.6788 14.1666 27.6662 14.1666C22.6537 14.1666 18.6107 18.5354 18.6107 23.8985C18.6107 25.5374 19.4384 27.5548 20.5694 29.5545C21.7042 31.5607 23.1596 33.5749 24.4453 35.2144L24.4554 35.2273C25.1163 36.0701 25.6255 36.7194 26.1059 37.1558C26.5958 37.6008 27.0717 37.8393 27.6662 37.8393C28.2608 37.8393 28.7367 37.6008 29.2266 37.1558C29.7069 36.7194 30.2161 36.0701 30.877 35.2274L30.8872 35.2144Z" stroke="url(#paint3_linear_1864_12475)" stroke-width="0.333333" stroke-linecap="round"/>
</g>
<g filter="url(#filter2_d_1864_12475)">
<path d="M31.6489 22.6338C31.9377 22.2754 31.8813 21.7508 31.5229 21.4621C31.1645 21.1733 30.6399 21.2297 30.3511 21.5881L28.105 24.3756C27.6438 24.948 27.3528 25.306 27.1106 25.5321C26.9968 25.6384 26.9241 25.6857 26.8824 25.7066C26.8512 25.7222 26.8401 25.7221 26.8342 25.7221H26.8326C26.8266 25.7221 26.8155 25.7222 26.7844 25.7066C26.7426 25.6857 26.6699 25.6384 26.5561 25.5321C26.3139 25.306 26.0229 24.948 25.5617 24.3756L24.9823 23.6565C24.6935 23.2981 24.1689 23.2417 23.8105 23.5305C23.4521 23.8192 23.3957 24.3438 23.6845 24.7022L24.3001 25.4663L24.3001 25.4663C24.714 25.98 25.0792 26.4333 25.4185 26.7502C25.7829 27.0905 26.2359 27.3887 26.8334 27.3887C27.4308 27.3887 27.8838 27.0905 28.2482 26.7502C28.5875 26.4333 28.9527 25.98 29.3666 25.4663L31.6489 22.6338Z" fill="url(#paint4_linear_1864_12475)"/>
</g>
</g>
<defs>
<filter id="filter0_b_1864_12475" x="-7.5" y="-7.5" width="67" height="67" filterUnits="userSpaceOnUse" color-interpolation-filters="sRGB">
<feFlood flood-opacity="0" result="BackgroundImageFix"/>
<feGaussianBlur in="BackgroundImage" stdDeviation="4"/>
<feComposite in2="SourceAlpha" operator="in" result="effect1_backgroundBlur_1864_12475"/>
<feBlend mode="normal" in="SourceGraphic" in2="effect1_backgroundBlur_1864_12475" result="shape"/>
</filter>
<filter id="filter1_b_1864_12475" x="-5.55566" y="-10" width="66.4443" height="72.0061" filterUnits="userSpaceOnUse" color-interpolation-filters="sRGB">
<feFlood flood-opacity="0" result="BackgroundImageFix"/>
<feGaussianBlur in="BackgroundImage" stdDeviation="12"/>
<feComposite in2="SourceAlpha" operator="in" result="effect1_backgroundBlur_1864_12475"/>
<feBlend mode="normal" in="SourceGraphic" in2="effect1_backgroundBlur_1864_12475" result="shape"/>
</filter>
<filter id="filter2_d_1864_12475" x="20.2442" y="18.0218" width="21.3563" height="19.1344" filterUnits="userSpaceOnUse" color-interpolation-filters="sRGB">
<feFlood flood-opacity="0" result="BackgroundImageFix"/>
<feColorMatrix in="SourceAlpha" type="matrix" values="0 0 0 0 0 0 0 0 0 0 0 0 0 0 0 0 0 0 127 0" result="hardAlpha"/>
<feOffset dx="3.25583" dy="3.25583"/>
<feGaussianBlur stdDeviation="3.25583"/>
<feColorMatrix type="matrix" values="0 0 0 0 0.152941 0 0 0 0 0.784314 0 0 0 0 0.235294 0 0 0 0.5 0"/>
<feBlend mode="normal" in2="BackgroundImageFix" result="effect1_dropShadow_1864_12475"/>
<feBlend mode="normal" in="SourceGraphic" in2="effect1_dropShadow_1864_12475" result="shape"/>
</filter>
<radialGradient id="paint0_radial_1864_12475" cx="0" cy="0" r="1" gradientUnits="userSpaceOnUse" gradientTransform="translate(1 1) rotate(45) scale(70.7107)">
<stop stop-color="#FAFAFA"/>
<stop offset="1" stop-color="#F7F7F7" stop-opacity="0"/>
</radialGradient>
<linearGradient id="paint1_linear_1864_12475" x1="11" y1="29.9999" x2="28.0218" y2="13.7042" gradientUnits="userSpaceOnUse">
<stop stop-color="#209440"/>
<stop offset="1" stop-color="#2EFF36"/>
</linearGradient>
<linearGradient id="paint2_linear_1864_12475" x1="11" y1="29.9999" x2="28.0218" y2="13.7042" gradientUnits="userSpaceOnUse">
<stop stop-color="#94208F"/>
<stop offset="1" stop-color="#FF2EC5"/>
</linearGradient>
<linearGradient id="paint3_linear_1864_12475" x1="18.7773" y1="14.3333" x2="41.2834" y2="31.4589" gradientUnits="userSpaceOnUse">
<stop stop-color="white" stop-opacity="0.25"/>
<stop offset="1" stop-color="white" stop-opacity="0"/>
</linearGradient>
<linearGradient id="paint4_linear_1864_12475" x1="27.7369" y1="28.6907" x2="35.8297" y2="17.8729" gradientUnits="userSpaceOnUse">
<stop stop-color="white"/>
<stop offset="1" stop-color="white" stop-opacity="0.2"/>
</linearGradient>
<clipPath id="clip0_1864_12475">
<rect width="26.6667" height="26.6667" fill="white" transform="translate(14.333 12.6665)"/>
</clipPath>
</defs>
</svg>
