<svg width="52" height="52" viewBox="0 0 52 52" fill="none" xmlns="http://www.w3.org/2000/svg">
<g filter="url(#filter0_b_1864_12541)">
<rect x="1" y="1" width="50.0031" height="50.0031" rx="12.6675" fill="url(#paint0_radial_1864_12541)" fill-opacity="0.2"/>
<rect x="1" y="1" width="50.0031" height="50.0031" rx="12.6675" stroke="#CD27AC"/>
</g>
<path fill-rule="evenodd" clip-rule="evenodd" d="M15.7048 16.1159C13.8528 17.4615 12.9267 18.1344 12.563 19.1282C12.5338 19.2079 12.5076 19.2887 12.4843 19.3703C12.1944 20.3881 12.5481 21.4767 13.2556 23.654C13.963 25.8312 14.3167 26.9198 15.1495 27.5729C15.2163 27.6252 15.285 27.6752 15.3555 27.7225C16.2339 28.3127 17.3785 28.3127 19.6678 28.3127C21.9571 28.3127 23.1017 28.3127 23.9801 27.7225C24.0506 27.6752 24.1193 27.6252 24.1861 27.5729C25.0189 26.9198 25.3726 25.8312 26.0801 23.654C26.7875 21.4767 27.1412 20.3881 26.8513 19.3703C26.828 19.2887 26.8018 19.2079 26.7726 19.1282C26.4089 18.1344 25.4829 17.4615 23.6308 16.1159C21.7787 14.7703 20.8527 14.0975 19.7951 14.0587C19.7103 14.0556 19.6254 14.0556 19.5405 14.0587C18.4829 14.0975 17.5569 14.7703 15.7048 16.1159ZM18.2788 24.5221C17.9912 24.5221 17.758 24.7553 17.758 25.0429C17.758 25.3306 17.9912 25.5638 18.2788 25.5638H21.0568C21.3445 25.5638 21.5777 25.3306 21.5777 25.0429C21.5777 24.7553 21.3445 24.5221 21.0568 24.5221H18.2788Z" fill="url(#paint1_linear_1864_12541)"/>
<g clip-path="url(#clip0_1864_12541)">
<g filter="url(#filter1_b_1864_12541)">
<path fill-rule="evenodd" clip-rule="evenodd" d="M20.9939 17.963C18.0306 20.116 16.549 21.1925 15.967 22.7826C15.9204 22.9101 15.8784 23.0394 15.8412 23.17C15.3773 24.7985 15.9432 26.5403 17.0751 30.0239C18.207 33.5074 18.773 35.2492 20.1054 36.2941C20.2123 36.3779 20.3222 36.4577 20.435 36.5335C21.8404 37.4779 23.6719 37.4779 27.3347 37.4779C30.9976 37.4779 32.829 37.4779 34.2344 36.5335C34.3472 36.4577 34.4571 36.3779 34.564 36.2941C35.8965 35.2492 36.4624 33.5074 37.5943 30.0239C38.7262 26.5403 39.2921 24.7985 38.8283 23.17C38.7911 23.0394 38.7491 22.9101 38.7024 22.7826C38.1205 21.1925 36.6388 20.116 33.6755 17.963C30.7122 15.81 29.2305 14.7335 27.5384 14.6715C27.4027 14.6665 27.2668 14.6665 27.131 14.6715C25.4389 14.7335 23.9573 15.81 20.9939 17.963Z" fill="#C927AA" fill-opacity="0.35"/>
<path fill-rule="evenodd" clip-rule="evenodd" d="M20.9939 17.963C18.0306 20.116 16.549 21.1925 15.967 22.7826C15.9204 22.9101 15.8784 23.0394 15.8412 23.17C15.3773 24.7985 15.9432 26.5403 17.0751 30.0239C18.207 33.5074 18.773 35.2492 20.1054 36.2941C20.2123 36.3779 20.3222 36.4577 20.435 36.5335C21.8404 37.4779 23.6719 37.4779 27.3347 37.4779C30.9976 37.4779 32.829 37.4779 34.2344 36.5335C34.3472 36.4577 34.4571 36.3779 34.564 36.2941C35.8965 35.2492 36.4624 33.5074 37.5943 30.0239C38.7262 26.5403 39.2921 24.7985 38.8283 23.17C38.7911 23.0394 38.7491 22.9101 38.7024 22.7826C38.1205 21.1925 36.6388 20.116 33.6755 17.963C30.7122 15.81 29.2305 14.7335 27.5384 14.6715C27.4027 14.6665 27.2668 14.6665 27.131 14.6715C25.4389 14.7335 23.9573 15.81 20.9939 17.963Z" stroke="url(#paint2_linear_1864_12541)" stroke-width="0.333354" stroke-linecap="round"/>
</g>
<g filter="url(#filter2_d_1864_12541)">
<path fill-rule="evenodd" clip-rule="evenodd" d="M25.1127 31.4128C24.6524 31.4128 24.2793 31.786 24.2793 32.2462C24.2793 32.7065 24.6524 33.0796 25.1127 33.0796H29.5574C30.0177 33.0796 30.3908 32.7065 30.3908 32.2462C30.3908 31.786 30.0177 31.4128 29.5574 31.4128H25.1127Z" fill="url(#paint3_linear_1864_12541)"/>
</g>
</g>
<defs>
<filter id="filter0_b_1864_12541" x="-7.50049" y="-7.50049" width="67.0039" height="67.0042" filterUnits="userSpaceOnUse" color-interpolation-filters="sRGB">
<feFlood flood-opacity="0" result="BackgroundImageFix"/>
<feGaussianBlur in="BackgroundImage" stdDeviation="4.00025"/>
<feComposite in2="SourceAlpha" operator="in" result="effect1_backgroundBlur_1864_12541"/>
<feBlend mode="normal" in="SourceGraphic" in2="effect1_backgroundBlur_1864_12541" result="shape"/>
</filter>
<filter id="filter1_b_1864_12541" x="-8.48828" y="-9.49902" width="71.6455" height="71.1436" filterUnits="userSpaceOnUse" color-interpolation-filters="sRGB">
<feFlood flood-opacity="0" result="BackgroundImageFix"/>
<feGaussianBlur in="BackgroundImage" stdDeviation="12"/>
<feComposite in2="SourceAlpha" operator="in" result="effect1_backgroundBlur_1864_12541"/>
<feBlend mode="normal" in="SourceGraphic" in2="effect1_backgroundBlur_1864_12541" result="shape"/>
</filter>
<filter id="filter2_d_1864_12541" x="21.0235" y="28.157" width="19.1347" height="14.6901" filterUnits="userSpaceOnUse" color-interpolation-filters="sRGB">
<feFlood flood-opacity="0" result="BackgroundImageFix"/>
<feColorMatrix in="SourceAlpha" type="matrix" values="0 0 0 0 0 0 0 0 0 0 0 0 0 0 0 0 0 0 127 0" result="hardAlpha"/>
<feOffset dx="3.25583" dy="3.25583"/>
<feGaussianBlur stdDeviation="3.25583"/>
<feColorMatrix type="matrix" values="0 0 0 0 0.788235 0 0 0 0 0.152941 0 0 0 0 0.666667 0 0 0 0.5 0"/>
<feBlend mode="normal" in2="BackgroundImageFix" result="effect1_dropShadow_1864_12541"/>
<feBlend mode="normal" in="SourceGraphic" in2="effect1_dropShadow_1864_12541" result="shape"/>
</filter>
<radialGradient id="paint0_radial_1864_12541" cx="0" cy="0" r="1" gradientUnits="userSpaceOnUse" gradientTransform="translate(1 1) rotate(45) scale(70.7151)">
<stop stop-color="#FAFAFA"/>
<stop offset="1" stop-color="#F7F7F7" stop-opacity="0"/>
</radialGradient>
<linearGradient id="paint1_linear_1864_12541" x1="12.3828" y1="28.3127" x2="26.9533" y2="14.0569" gradientUnits="userSpaceOnUse">
<stop stop-color="#94208F"/>
<stop offset="1" stop-color="#FF2EC5"/>
</linearGradient>
<linearGradient id="paint2_linear_1864_12541" x1="15.6787" y1="14.6677" x2="38.4955" y2="37.9629" gradientUnits="userSpaceOnUse">
<stop stop-color="white" stop-opacity="0.25"/>
<stop offset="1" stop-color="white" stop-opacity="0"/>
</linearGradient>
<linearGradient id="paint3_linear_1864_12541" x1="27.3865" y1="33.4347" x2="28.5748" y2="29.1636" gradientUnits="userSpaceOnUse">
<stop stop-color="white"/>
<stop offset="1" stop-color="white" stop-opacity="0.2"/>
</linearGradient>
<clipPath id="clip0_1864_12541">
<rect width="26.6683" height="26.6683" fill="white" transform="translate(14.001 12.6675)"/>
</clipPath>
</defs>
</svg>
