<svg width="52" height="52" viewBox="0 0 52 52" fill="none" xmlns="http://www.w3.org/2000/svg">
<g filter="url(#filter0_b_1864_12509)">
<rect x="1" y="1" width="50" height="50" rx="12.6667" fill="url(#paint0_radial_1864_12509)" fill-opacity="0.2"/>
<rect x="1" y="1" width="50" height="50" rx="12.6667" stroke="#CD27AC"/>
</g>
<circle cx="19.3333" cy="21.6666" r="8.33333" fill="url(#paint1_linear_1864_12509)"/>
<circle cx="19.3333" cy="21.6666" r="8.33333" fill="url(#paint2_linear_1864_12509)"/>
<g clip-path="url(#clip0_1864_12509)">
<g filter="url(#filter1_b_1864_12509)">
<path d="M28.8147 16.2776C30.3389 16.2776 31.5338 16.2776 32.4942 16.356C33.4721 16.4359 34.28 16.6013 35.0113 16.9739C36.2134 17.5865 37.1908 18.5638 37.8033 19.766C38.2501 20.6429 38.4044 21.6468 38.4624 22.9443H16.8703C16.9282 21.6468 17.0826 20.6429 17.5294 19.766C18.1419 18.5638 19.1193 17.5865 20.3214 16.9739C21.0527 16.6013 21.8606 16.4359 22.8385 16.356C23.7989 16.2776 24.9938 16.2776 26.5179 16.2776H28.8147Z" fill="#C927AA" fill-opacity="0.35"/>
<path fill-rule="evenodd" clip-rule="evenodd" d="M16.8355 24.6109C16.833 25.0377 16.833 25.4976 16.833 25.9934V26.0371C16.833 27.5612 16.833 28.7562 16.9115 29.7165C16.9914 30.6945 17.1568 31.5024 17.5294 32.2336C18.1419 33.4358 19.1193 34.4132 20.3214 35.0257C21.0527 35.3983 21.8606 35.5637 22.8385 35.6436C23.7988 35.722 24.9937 35.722 26.5177 35.722H28.8148C30.3388 35.722 31.5339 35.722 32.4942 35.6436C33.4721 35.5637 34.28 35.3983 35.0113 35.0257C36.2134 34.4132 37.1908 33.4358 37.8033 32.2336C38.1759 31.5024 38.3413 30.6945 38.4212 29.7165C38.4997 28.7562 38.4997 27.5614 38.4997 26.0373V25.9934C38.4997 25.4975 38.4997 25.0377 38.4971 24.6109H16.8355Z" fill="#C927AA" fill-opacity="0.35"/>
<path d="M38.4624 23.1109H38.6367L38.6289 22.9368C38.5706 21.6329 38.4152 20.5997 37.9518 19.6903C37.3233 18.4568 36.3205 17.4539 35.0869 16.8254C34.3283 16.4389 33.496 16.2707 32.5078 16.1899C31.5406 16.1109 30.3401 16.1109 28.822 16.1109L28.8147 16.1109H26.5179L26.5106 16.1109C24.9926 16.1109 23.7921 16.1109 22.8249 16.1899C21.8367 16.2707 21.0044 16.4389 20.2457 16.8254C19.0122 17.4539 18.0094 18.4568 17.3809 19.6903C16.9175 20.5997 16.762 21.6329 16.7038 22.9368L16.696 23.1109H16.8703H38.4624ZM16.8355 24.4443H16.6699L16.6689 24.6099C16.6663 25.0372 16.6663 25.4975 16.6663 25.993V25.9934V26.0371L16.6663 26.0444C16.6663 27.5625 16.6663 28.763 16.7454 29.7301C16.8261 30.7184 16.9943 31.5506 17.3809 32.3093C18.0094 33.5428 19.0122 34.5457 20.2457 35.1742C21.0044 35.5607 21.8367 35.7289 22.8249 35.8097C23.792 35.8887 24.9925 35.8887 26.5104 35.8887H26.5177H28.8148H28.8221C30.34 35.8887 31.5406 35.8887 32.5078 35.8097C33.496 35.7289 34.3283 35.5607 35.0869 35.1742C36.3205 34.5457 37.3233 33.5428 37.9518 32.3093C38.3384 31.5506 38.5066 30.7184 38.5873 29.7301C38.6663 28.763 38.6663 27.5626 38.6663 26.0447V26.0373V25.9934C38.6663 25.4977 38.6663 25.0373 38.6638 24.6099L38.6628 24.4443H38.4971H16.8355Z" stroke="url(#paint3_linear_1864_12509)" stroke-width="0.333333" stroke-linecap="round"/>
</g>
<g filter="url(#filter2_d_1864_12509)">
<path d="M27.9443 31.5555C27.9443 31.0953 28.3174 30.7222 28.7777 30.7222H33.2221C33.6824 30.7222 34.0554 31.0953 34.0554 31.5555C34.0554 32.0157 33.6824 32.3888 33.2221 32.3888H28.7777C28.3174 32.3888 27.9443 32.0157 27.9443 31.5555Z" fill="url(#paint4_linear_1864_12509)"/>
</g>
</g>
<defs>
<filter id="filter0_b_1864_12509" x="-7.5" y="-7.5" width="67" height="67" filterUnits="userSpaceOnUse" color-interpolation-filters="sRGB">
<feFlood flood-opacity="0" result="BackgroundImageFix"/>
<feGaussianBlur in="BackgroundImage" stdDeviation="4"/>
<feComposite in2="SourceAlpha" operator="in" result="effect1_backgroundBlur_1864_12509"/>
<feBlend mode="normal" in="SourceGraphic" in2="effect1_backgroundBlur_1864_12509" result="shape"/>
</filter>
<filter id="filter1_b_1864_12509" x="-7.5" y="-8.05566" width="70.333" height="68.1111" filterUnits="userSpaceOnUse" color-interpolation-filters="sRGB">
<feFlood flood-opacity="0" result="BackgroundImageFix"/>
<feGaussianBlur in="BackgroundImage" stdDeviation="12"/>
<feComposite in2="SourceAlpha" operator="in" result="effect1_backgroundBlur_1864_12509"/>
<feBlend mode="normal" in="SourceGraphic" in2="effect1_backgroundBlur_1864_12509" result="shape"/>
</filter>
<filter id="filter2_d_1864_12509" x="24.9443" y="27.7222" width="22.1113" height="17.6667" filterUnits="userSpaceOnUse" color-interpolation-filters="sRGB">
<feFlood flood-opacity="0" result="BackgroundImageFix"/>
<feColorMatrix in="SourceAlpha" type="matrix" values="0 0 0 0 0 0 0 0 0 0 0 0 0 0 0 0 0 0 127 0" result="hardAlpha"/>
<feOffset dx="5" dy="5"/>
<feGaussianBlur stdDeviation="4"/>
<feColorMatrix type="matrix" values="0 0 0 0 0.176471 0 0 0 0 0.556863 0 0 0 0 0.678431 0 0 0 0.5 0"/>
<feBlend mode="normal" in2="BackgroundImageFix" result="effect1_dropShadow_1864_12509"/>
<feBlend mode="normal" in="SourceGraphic" in2="effect1_dropShadow_1864_12509" result="shape"/>
</filter>
<radialGradient id="paint0_radial_1864_12509" cx="0" cy="0" r="1" gradientUnits="userSpaceOnUse" gradientTransform="translate(1 1) rotate(45) scale(70.7107)">
<stop stop-color="#FAFAFA"/>
<stop offset="1" stop-color="#F7F7F7" stop-opacity="0"/>
</radialGradient>
<linearGradient id="paint1_linear_1864_12509" x1="11" y1="29.9999" x2="28.0218" y2="13.7042" gradientUnits="userSpaceOnUse">
<stop stop-color="#207894"/>
<stop offset="1" stop-color="#2ECDFF"/>
</linearGradient>
<linearGradient id="paint2_linear_1864_12509" x1="11" y1="29.9999" x2="28.0218" y2="13.7042" gradientUnits="userSpaceOnUse">
<stop stop-color="#94208F"/>
<stop offset="1" stop-color="#FF2EC5"/>
</linearGradient>
<linearGradient id="paint3_linear_1864_12509" x1="16.833" y1="16.2776" x2="36.1761" y2="37.8094" gradientUnits="userSpaceOnUse">
<stop stop-color="white" stop-opacity="0.25"/>
<stop offset="1" stop-color="white" stop-opacity="0"/>
</linearGradient>
<linearGradient id="paint4_linear_1864_12509" x1="31.0514" y1="32.7439" x2="32.2396" y2="28.4731" gradientUnits="userSpaceOnUse">
<stop stop-color="white"/>
<stop offset="1" stop-color="white" stop-opacity="0.2"/>
</linearGradient>
<clipPath id="clip0_1864_12509">
<rect width="26.6667" height="26.6667" fill="white" transform="translate(14.333 12.6665)"/>
</clipPath>
</defs>
</svg>
