<svg width="52" height="52" viewBox="0 0 52 52" fill="none" xmlns="http://www.w3.org/2000/svg">
<g filter="url(#filter0_b_1864_12898)">
<rect x="1" y="1" width="49.9968" height="49.9968" rx="12.6659" fill="url(#paint0_radial_1864_12898)" fill-opacity="0.2"/>
<rect x="1" y="1" width="49.9968" height="49.9968" rx="12.6659" stroke="#CD27AC"/>
</g>
<path d="M26.7089 25.7757C24.4577 23.5244 23.332 22.3988 23.332 21C23.332 19.6013 24.4577 18.4756 26.7089 16.2244L26.8906 16.0427C29.1419 13.7914 30.2675 12.6658 31.6663 12.6658C33.065 12.6658 34.1907 13.7914 36.4419 16.0427L36.6236 16.2244C38.8749 18.4756 40.0005 19.6013 40.0005 21C40.0005 22.3988 38.8749 23.5244 36.6236 25.7757L36.4419 25.9574C34.1907 28.2086 33.065 29.3343 31.6663 29.3343C30.2675 29.3343 29.1419 28.2086 26.8906 25.9574L26.7089 25.7757Z" fill="url(#paint1_linear_1864_12898)"/>
<path d="M26.7089 25.7757C24.4577 23.5244 23.332 22.3988 23.332 21C23.332 19.6013 24.4577 18.4756 26.7089 16.2244L26.8906 16.0427C29.1419 13.7914 30.2675 12.6658 31.6663 12.6658C33.065 12.6658 34.1907 13.7914 36.4419 16.0427L36.6236 16.2244C38.8749 18.4756 40.0005 19.6013 40.0005 21C40.0005 22.3988 38.8749 23.5244 36.6236 25.7757L36.4419 25.9574C34.1907 28.2086 33.065 29.3343 31.6663 29.3343C30.2675 29.3343 29.1419 28.2086 26.8906 25.9574L26.7089 25.7757Z" fill="url(#paint2_linear_1864_12898)"/>
<g clip-path="url(#clip0_1864_12898)">
<g filter="url(#filter1_b_1864_12898)">
<path fill-rule="evenodd" clip-rule="evenodd" d="M16.0611 18.2898C15 19.7504 15 21.8338 15 26.0006C15 30.1674 15 32.2509 16.0611 33.7114C16.4038 34.1831 16.8186 34.5979 17.2903 34.9406C18.7509 36.0017 20.8343 36.0017 25.0011 36.0017C29.1679 36.0017 31.2513 36.0017 32.7119 34.9406C33.1836 34.5979 33.5984 34.1831 33.9411 33.7114C35.0022 32.2509 35.0022 30.1674 35.0022 26.0006C35.0022 21.8338 35.0022 19.7504 33.9411 18.2898C33.5984 17.8182 33.1836 17.4033 32.7119 17.0606C31.2513 15.9995 29.1679 15.9995 25.0011 15.9995C20.8343 15.9995 18.7509 15.9995 17.2903 17.0606C16.8186 17.4033 16.4038 17.8182 16.0611 18.2898Z" fill="#C927AA" fill-opacity="0.35"/>
<path d="M15.9263 18.1919C15.3716 18.9553 15.1011 19.874 14.9669 21.1124C14.8333 22.3456 14.8333 23.9156 14.8333 25.99V26.0006V26.0112C14.8333 28.0857 14.8333 29.6556 14.9669 30.8888C15.1011 32.1273 15.3716 33.0459 15.9263 33.8094C16.2793 34.2952 16.7065 34.7225 17.1924 35.0754C17.9558 35.6301 18.8744 35.9006 20.1129 36.0348C21.3461 36.1684 22.916 36.1684 24.9905 36.1684H25.0011H25.0117C27.0862 36.1684 28.6561 36.1684 29.8893 36.0348C31.1278 35.9006 32.0464 35.6301 32.8098 35.0754C33.2957 34.7225 33.7229 34.2952 34.0759 33.8094C34.6306 33.0459 34.9011 32.1273 35.0353 30.8888C35.1689 29.6556 35.1689 28.0857 35.1689 26.0112V26.0006V25.99C35.1689 23.9155 35.1689 22.3456 35.0353 21.1124C34.9011 19.874 34.6306 18.9553 34.0759 18.1919C33.7229 17.706 33.2957 17.2788 32.8098 16.9258C32.0464 16.3711 31.1278 16.1006 29.8893 15.9664C28.6561 15.8328 27.0862 15.8328 25.0117 15.8328H25.0011H24.9905C22.916 15.8328 21.3461 15.8328 20.1129 15.9664C18.8744 16.1006 17.9558 16.3711 17.1924 16.9258C16.7065 17.2788 16.2793 17.706 15.9263 18.1919Z" stroke="url(#paint3_linear_1864_12898)" stroke-width="0.33337" stroke-linecap="round"/>
</g>
<g filter="url(#filter2_d_1864_12898)">
<path fill-rule="evenodd" clip-rule="evenodd" d="M18.6113 26.0007C18.6113 24.313 19.9795 22.9448 21.6672 22.9448C23.066 22.9448 24.2453 23.8846 24.6081 25.1673H27.2053C27.217 25.167 27.2286 25.167 27.2402 25.1673H30.4259C30.822 25.1673 31.1841 25.3911 31.3612 25.7453C31.7913 26.6056 31.7913 27.6183 31.3612 28.4786L31.3025 28.5959C31.0967 29.0076 30.5961 29.1745 30.1844 28.9686C29.7727 28.7628 29.6058 28.2622 29.8117 27.8505L29.8703 27.7331C30.0108 27.4521 30.0504 27.1353 29.9889 26.8341H28.3375C28.3885 27.3933 28.2851 27.9633 28.0275 28.4786L27.9688 28.5959C27.763 29.0076 27.2624 29.1745 26.8507 28.9686C26.439 28.7628 26.2721 28.2622 26.4779 27.8505L26.5366 27.7332C26.6771 27.4521 26.7167 27.1353 26.6552 26.8341H24.6081C24.2453 28.1168 23.066 29.0566 21.6672 29.0566C19.9795 29.0566 18.6113 27.6884 18.6113 26.0007ZM20.2782 26.0007C20.2782 25.2336 20.9001 24.6117 21.6672 24.6117C22.4344 24.6117 23.0563 25.2336 23.0563 26.0007C23.0563 26.7679 22.4344 27.3898 21.6672 27.3898C20.9001 27.3898 20.2782 26.7679 20.2782 26.0007Z" fill="url(#paint4_linear_1864_12898)"/>
</g>
</g>
<defs>
<filter id="filter0_b_1864_12898" x="-7.49949" y="-7.49949" width="66.996" height="66.9958" filterUnits="userSpaceOnUse" color-interpolation-filters="sRGB">
<feFlood flood-opacity="0" result="BackgroundImageFix"/>
<feGaussianBlur in="BackgroundImage" stdDeviation="3.99974"/>
<feComposite in2="SourceAlpha" operator="in" result="effect1_backgroundBlur_1864_12898"/>
<feBlend mode="normal" in="SourceGraphic" in2="effect1_backgroundBlur_1864_12898" result="shape"/>
</filter>
<filter id="filter1_b_1864_12898" x="-9.33301" y="-8.33374" width="68.6689" height="68.6689" filterUnits="userSpaceOnUse" color-interpolation-filters="sRGB">
<feFlood flood-opacity="0" result="BackgroundImageFix"/>
<feGaussianBlur in="BackgroundImage" stdDeviation="12"/>
<feComposite in2="SourceAlpha" operator="in" result="effect1_backgroundBlur_1864_12898"/>
<feBlend mode="normal" in="SourceGraphic" in2="effect1_backgroundBlur_1864_12898" result="shape"/>
</filter>
<filter id="filter2_d_1864_12898" x="15.6113" y="19.9448" width="29.0723" height="22.1121" filterUnits="userSpaceOnUse" color-interpolation-filters="sRGB">
<feFlood flood-opacity="0" result="BackgroundImageFix"/>
<feColorMatrix in="SourceAlpha" type="matrix" values="0 0 0 0 0 0 0 0 0 0 0 0 0 0 0 0 0 0 127 0" result="hardAlpha"/>
<feOffset dx="5" dy="5"/>
<feGaussianBlur stdDeviation="4"/>
<feColorMatrix type="matrix" values="0 0 0 0 0.176471 0 0 0 0 0.556863 0 0 0 0 0.678431 0 0 0 0.5 0"/>
<feBlend mode="normal" in2="BackgroundImageFix" result="effect1_dropShadow_1864_12898"/>
<feBlend mode="normal" in="SourceGraphic" in2="effect1_dropShadow_1864_12898" result="shape"/>
</filter>
<radialGradient id="paint0_radial_1864_12898" cx="0" cy="0" r="1" gradientUnits="userSpaceOnUse" gradientTransform="translate(1 1) rotate(45) scale(70.7061)">
<stop stop-color="#FAFAFA"/>
<stop offset="1" stop-color="#F7F7F7" stop-opacity="0"/>
</radialGradient>
<linearGradient id="paint1_linear_1864_12898" x1="23.332" y1="29.3343" x2="40.3557" y2="13.0368" gradientUnits="userSpaceOnUse">
<stop stop-color="#4C2094"/>
<stop offset="1" stop-color="#712EFF"/>
</linearGradient>
<linearGradient id="paint2_linear_1864_12898" x1="23.332" y1="29.3343" x2="40.3557" y2="13.0368" gradientUnits="userSpaceOnUse">
<stop stop-color="#94208F"/>
<stop offset="1" stop-color="#FF2EC5"/>
</linearGradient>
<linearGradient id="paint3_linear_1864_12898" x1="15" y1="15.9995" x2="35.0123" y2="35.9916" gradientUnits="userSpaceOnUse">
<stop stop-color="white" stop-opacity="0.25"/>
<stop offset="1" stop-color="white" stop-opacity="0"/>
</linearGradient>
<linearGradient id="paint4_linear_1864_12898" x1="25.2576" y1="30.3589" x2="31.8145" y2="16.612" gradientUnits="userSpaceOnUse">
<stop stop-color="white"/>
<stop offset="1" stop-color="white" stop-opacity="0.2"/>
</linearGradient>
<clipPath id="clip0_1864_12898">
<rect width="26.6696" height="26.6696" fill="white" transform="translate(11.666 12.6658)"/>
</clipPath>
</defs>
</svg>
