<svg width="52" height="52" viewBox="0 0 52 52" fill="none" xmlns="http://www.w3.org/2000/svg">
<g filter="url(#filter0_b_1864_12580)">
<rect x="1" y="1" width="50" height="50" rx="12.6667" fill="url(#paint0_radial_1864_12580)" fill-opacity="0.2"/>
<rect x="1" y="1" width="50" height="50" rx="12.6667" stroke="#CD27AC"/>
</g>
<g clip-path="url(#clip0_1864_12580)">
<path d="M19.7204 24.0559C23.1729 24.0559 25.9717 26.8547 25.9717 30.3072C25.9717 33.7597 23.1729 36.5585 19.7204 36.5585C16.2679 36.5585 13.4691 33.7597 13.4691 30.3072C13.4691 26.8547 16.2679 24.0559 19.7204 24.0559Z" fill="url(#paint1_linear_1864_12580)"/>
<path d="M19.7204 24.0559C23.1729 24.0559 25.9717 26.8547 25.9717 30.3072C25.9717 33.7597 23.1729 36.5585 19.7204 36.5585C16.2679 36.5585 13.4691 33.7597 13.4691 30.3072C13.4691 26.8547 16.2679 24.0559 19.7204 24.0559Z" fill="url(#paint2_linear_1864_12580)"/>
<path d="M14.532 36.2323C14.7354 36.0288 14.7354 35.699 14.532 35.4956C14.3285 35.2921 13.9987 35.2921 13.7953 35.4955L11.0169 38.2738C10.8135 38.4773 10.8135 38.8071 11.0169 39.0106C11.2204 39.214 11.5502 39.214 11.7537 39.0106L14.532 36.2323Z" fill="url(#paint3_linear_1864_12580)"/>
<path d="M14.532 36.2323C14.7354 36.0288 14.7354 35.699 14.532 35.4956C14.3285 35.2921 13.9987 35.2921 13.7953 35.4955L11.0169 38.2738C10.8135 38.4773 10.8135 38.8071 11.0169 39.0106C11.2204 39.214 11.5502 39.214 11.7537 39.0106L14.532 36.2323Z" fill="url(#paint4_linear_1864_12580)"/>
</g>
<g clip-path="url(#clip1_1864_12580)">
<g filter="url(#filter1_b_1864_12580)">
<path fill-rule="evenodd" clip-rule="evenodd" d="M16.668 24.0023C16.668 18.4783 21.1461 14.0002 26.67 14.0002C32.194 14.0002 36.6721 18.4783 36.6721 24.0023C36.6721 29.5263 32.194 34.0044 26.67 34.0044C21.1461 34.0044 16.668 29.5263 16.668 24.0023Z" fill="#C927AA" fill-opacity="0.35"/>
<path d="M34.9714 32.3037C35.2969 31.9782 35.8247 31.9782 36.1502 32.3037L40.5954 36.749C40.9209 37.0745 40.9209 37.6022 40.5954 37.9277C40.2699 38.2532 39.7422 38.2532 39.4167 37.9277L34.9714 33.4824C34.6459 33.1569 34.6459 32.6292 34.9714 32.3037Z" fill="#C927AA" fill-opacity="0.35"/>
<path fill-rule="evenodd" clip-rule="evenodd" d="M16.668 24.0023C16.668 18.4783 21.1461 14.0002 26.67 14.0002C32.194 14.0002 36.6721 18.4783 36.6721 24.0023C36.6721 29.5263 32.194 34.0044 26.67 34.0044C21.1461 34.0044 16.668 29.5263 16.668 24.0023Z" stroke="url(#paint5_linear_1864_12580)" stroke-width="0.333403" stroke-linecap="round"/>
<path d="M34.9714 32.3037C35.2969 31.9782 35.8247 31.9782 36.1502 32.3037L40.5954 36.749C40.9209 37.0745 40.9209 37.6022 40.5954 37.9277C40.2699 38.2532 39.7422 38.2532 39.4167 37.9277L34.9714 33.4824C34.6459 33.1569 34.6459 32.6292 34.9714 32.3037Z" stroke="url(#paint6_linear_1864_12580)" stroke-width="0.333403" stroke-linecap="round"/>
</g>
<g filter="url(#filter2_d_1864_12580)">
<path fill-rule="evenodd" clip-rule="evenodd" d="M25.5122 17.2723C25.5842 17.727 25.274 18.154 24.8194 18.226C22.7984 18.5461 21.2133 20.1311 20.8932 22.1521C20.8212 22.6068 20.3942 22.917 19.9396 22.845C19.4849 22.773 19.1747 22.346 19.2467 21.8914C19.6798 19.157 21.8243 17.0126 24.5586 16.5795C25.0133 16.5075 25.4402 16.8177 25.5122 17.2723Z" fill="url(#paint7_linear_1864_12580)"/>
</g>
</g>
<defs>
<filter id="filter0_b_1864_12580" x="-7.5" y="-7.5" width="67" height="67" filterUnits="userSpaceOnUse" color-interpolation-filters="sRGB">
<feFlood flood-opacity="0" result="BackgroundImageFix"/>
<feGaussianBlur in="BackgroundImage" stdDeviation="4"/>
<feComposite in2="SourceAlpha" operator="in" result="effect1_backgroundBlur_1864_12580"/>
<feBlend mode="normal" in="SourceGraphic" in2="effect1_backgroundBlur_1864_12580" result="shape"/>
</filter>
<filter id="filter1_b_1864_12580" x="-7.49902" y="-10.1665" width="72.5049" height="72.5051" filterUnits="userSpaceOnUse" color-interpolation-filters="sRGB">
<feFlood flood-opacity="0" result="BackgroundImageFix"/>
<feGaussianBlur in="BackgroundImage" stdDeviation="12"/>
<feComposite in2="SourceAlpha" operator="in" result="effect1_backgroundBlur_1864_12580"/>
<feBlend mode="normal" in="SourceGraphic" in2="effect1_backgroundBlur_1864_12580" result="shape"/>
</filter>
<filter id="filter2_d_1864_12580" x="15.9805" y="13.3133" width="19.3095" height="19.3097" filterUnits="userSpaceOnUse" color-interpolation-filters="sRGB">
<feFlood flood-opacity="0" result="BackgroundImageFix"/>
<feColorMatrix in="SourceAlpha" type="matrix" values="0 0 0 0 0 0 0 0 0 0 0 0 0 0 0 0 0 0 127 0" result="hardAlpha"/>
<feOffset dx="3.25583" dy="3.25583"/>
<feGaussianBlur stdDeviation="3.25583"/>
<feColorMatrix type="matrix" values="0 0 0 0 0.152941 0 0 0 0 0.784314 0 0 0 0 0.235294 0 0 0 0.5 0"/>
<feBlend mode="normal" in2="BackgroundImageFix" result="effect1_dropShadow_1864_12580"/>
<feBlend mode="normal" in="SourceGraphic" in2="effect1_dropShadow_1864_12580" result="shape"/>
</filter>
<radialGradient id="paint0_radial_1864_12580" cx="0" cy="0" r="1" gradientUnits="userSpaceOnUse" gradientTransform="translate(1 1) rotate(45) scale(70.7107)">
<stop stop-color="#FAFAFA"/>
<stop offset="1" stop-color="#F7F7F7" stop-opacity="0"/>
</radialGradient>
<linearGradient id="paint1_linear_1864_12580" x1="10.8643" y1="24.0559" x2="25.6353" y2="39.4851" gradientUnits="userSpaceOnUse">
<stop stop-color="#209440"/>
<stop offset="1" stop-color="#2EFF36"/>
</linearGradient>
<linearGradient id="paint2_linear_1864_12580" x1="10.8643" y1="24.0559" x2="25.6353" y2="39.4851" gradientUnits="userSpaceOnUse">
<stop stop-color="#94208F"/>
<stop offset="1" stop-color="#FF2EC5"/>
</linearGradient>
<linearGradient id="paint3_linear_1864_12580" x1="10.8643" y1="24.0559" x2="25.6353" y2="39.4851" gradientUnits="userSpaceOnUse">
<stop stop-color="#209440"/>
<stop offset="1" stop-color="#2EFF36"/>
</linearGradient>
<linearGradient id="paint4_linear_1864_12580" x1="10.8643" y1="24.0559" x2="25.6353" y2="39.4851" gradientUnits="userSpaceOnUse">
<stop stop-color="#94208F"/>
<stop offset="1" stop-color="#FF2EC5"/>
</linearGradient>
<linearGradient id="paint5_linear_1864_12580" x1="16.668" y1="14.0002" x2="40.8518" y2="38.1596" gradientUnits="userSpaceOnUse">
<stop stop-color="white" stop-opacity="0.25"/>
<stop offset="1" stop-color="white" stop-opacity="0"/>
</linearGradient>
<linearGradient id="paint6_linear_1864_12580" x1="16.668" y1="14.0002" x2="40.8518" y2="38.1596" gradientUnits="userSpaceOnUse">
<stop stop-color="white" stop-opacity="0.25"/>
<stop offset="1" stop-color="white" stop-opacity="0"/>
</linearGradient>
<linearGradient id="paint7_linear_1864_12580" x1="22.4324" y1="24.1946" x2="31.1085" y2="15.6899" gradientUnits="userSpaceOnUse">
<stop stop-color="white"/>
<stop offset="1" stop-color="white" stop-opacity="0.2"/>
</linearGradient>
<clipPath id="clip0_1864_12580">
<rect width="16.6701" height="16.6701" fill="white" transform="translate(26.666 22.6667) rotate(90)"/>
</clipPath>
<clipPath id="clip1_1864_12580">
<rect width="26.6722" height="26.6722" fill="white" transform="translate(15.334 12.6667)"/>
</clipPath>
</defs>
</svg>
