<svg width="303" height="283" viewBox="0 0 303 283" fill="none" xmlns="http://www.w3.org/2000/svg">
<g clip-path="url(#clip0_2283_26)">
<path d="M151.5 0L303 60.6429V80.8571H282.8C282.8 83.5945 281.722 85.9634 279.565 87.9637C277.408 89.9641 274.857 90.9643 271.911 90.9643H31.0891C28.1432 90.9643 25.5919 89.9641 23.4352 87.9637C21.2784 85.9634 20.2 83.5945 20.2 80.8571H0V60.6429L151.5 0ZM40.4 101.071H80.8V222.357H101V101.071H141.4V222.357H161.6V101.071H202V222.357H222.2V101.071H262.6V222.357H271.911C274.857 222.357 277.408 223.357 279.565 225.358C281.722 227.358 282.8 229.727 282.8 232.464V242.571H20.2V232.464C20.2 229.727 21.2784 227.358 23.4352 225.358C25.5919 223.357 28.1432 222.357 31.0891 222.357H40.4V101.071ZM292.111 252.679C295.057 252.679 297.608 253.679 299.765 255.679C301.922 257.679 303 260.048 303 262.786V283H0V262.786C0 260.048 1.07839 257.679 3.23516 255.679C5.39193 253.679 7.94323 252.679 10.8891 252.679H292.111Z" fill="url(#paint0_linear_2283_26)"/>
<path fill-rule="evenodd" clip-rule="evenodd" d="M146.268 71.5827H161.735L179.18 52.4023L163.653 52.4219L146.268 71.5827Z" fill="white"/>
<path fill-rule="evenodd" clip-rule="evenodd" d="M146.248 33.2012L161.835 33.2598L179.18 52.401L163.653 52.4206L146.248 33.2012Z" fill="white"/>
<path fill-rule="evenodd" clip-rule="evenodd" d="M123.947 71.5827H139.414L156.86 52.4023L141.313 52.4219L123.947 71.5827Z" fill="white"/>
<path fill-rule="evenodd" clip-rule="evenodd" d="M123.928 33.2012L139.515 33.2598L156.86 52.401L141.313 52.4206L123.928 33.2012Z" fill="white"/>
</g>
<defs>
<linearGradient id="paint0_linear_2283_26" x1="54.0661" y1="15.2351" x2="283.287" y2="306.592" gradientUnits="userSpaceOnUse">
<stop stop-color="#CC1818"/>
<stop offset="1" stop-color="#FF1F1F"/>
</linearGradient>
<clipPath id="clip0_2283_26">
<rect width="303" height="283" fill="white"/>
</clipPath>
</defs>
</svg>
