<svg width="24" height="23" viewBox="0 0 24 23" fill="none" xmlns="http://www.w3.org/2000/svg">
<g filter="url(#filter0_b_1218_16763)">
<circle r="11.1" transform="matrix(-1 0 0 1 12.0001 11.4999)" fill="#FF1F1F"/>
<circle r="11.25" transform="matrix(-1 0 0 1 12.0001 11.4999)" stroke="url(#paint0_linear_1218_16763)" stroke-width="0.3" stroke-linecap="round"/>
</g>
<path d="M9.34266 10.2065C9.29669 10.6567 9.27039 11.0924 9.27039 11.5001C9.27039 12.2634 9.36266 13.1253 9.50373 13.9968C10.3752 14.1378 11.2371 14.2301 12.0004 14.2301C12.7602 14.2301 13.6219 14.1381 14.4971 13.9965C14.6381 13.1251 14.7304 12.2633 14.7304 11.5001C14.7304 11.0925 14.7041 10.6568 14.6581 10.2065C13.7395 10.3535 12.8232 10.4501 12.0004 10.4501C11.1775 10.4501 10.2612 10.3535 9.34266 10.2065Z" fill="url(#paint1_linear_1218_16763)"/>
<path d="M8.10021 9.97963C8.04339 10.5064 8.01039 11.0193 8.01039 11.5001C8.01039 12.2016 8.0806 12.9712 8.19246 13.7523C6.60641 13.4214 5.14035 12.9986 4.35505 12.7579C4.10124 12.6801 4.00154 12.6492 3.86773 12.5956C3.80089 12.5689 3.73957 12.5417 3.6597 12.5035C3.62054 12.1745 3.60039 11.8397 3.60039 11.5001C3.60039 10.6025 3.74117 9.73781 4.00186 8.92687L4.06977 8.94824C4.89091 9.19806 6.42827 9.6397 8.10021 9.97963Z" fill="url(#paint2_linear_1218_16763)"/>
<path d="M4.47906 7.75568C5.30457 8.00587 6.73722 8.41241 8.2725 8.72892C8.62613 6.5795 9.24602 4.4357 9.54424 3.46488C7.32659 4.14191 5.49854 5.71183 4.47906 7.75568Z" fill="url(#paint3_linear_1218_16763)"/>
<path d="M9.51105 8.95793C10.3801 9.09835 11.2393 9.1901 12.0004 9.1901C12.7614 9.1901 13.6206 9.09835 14.4896 8.95794C14.1566 6.92414 13.5621 4.84654 13.2582 3.85476C13.1804 3.60094 13.1494 3.50125 13.0959 3.36744C13.0692 3.3006 13.042 3.23928 13.0038 3.15941C12.6748 3.12025 12.3399 3.1001 12.0004 3.1001C11.6457 3.1001 11.2961 3.12208 10.953 3.16477C10.9457 3.19261 10.9389 3.21753 10.9323 3.2411C10.9127 3.31076 10.8819 3.40866 10.8302 3.57293L10.8247 3.59019C10.5656 4.41388 9.87891 6.71131 9.51105 8.95793Z" fill="url(#paint4_linear_1218_16763)"/>
<path d="M15.7284 8.7289C15.3763 6.58896 14.7605 4.45671 14.4629 3.48554L14.4565 3.46487C16.6742 4.1419 18.5022 5.71182 19.5217 7.75567C18.6962 8.00585 17.2636 8.41239 15.7284 8.7289Z" fill="url(#paint5_linear_1218_16763)"/>
<path d="M19.9989 8.92686C20.2596 9.73781 20.4004 10.6025 20.4004 11.5001C20.4004 11.8512 20.3788 12.1973 20.337 12.5371L20.2046 12.5813L20.2036 12.5816L20.2023 12.5821L20.2014 12.5824C20.1587 12.5965 18.9099 13.0089 17.2654 13.4181C16.8013 13.5335 16.3099 13.6476 15.8083 13.7522C15.9202 12.9712 15.9904 12.2016 15.9904 11.5001C15.9904 11.0192 15.9574 10.5063 15.9006 9.97961C17.573 9.63959 19.1106 9.19779 19.9316 8.94801L19.9373 8.94627L19.9989 8.92686Z" fill="url(#paint6_linear_1218_16763)"/>
<path d="M12.0004 15.4901C11.2988 15.4901 10.5292 15.4199 9.74815 15.308C10.0791 16.8941 10.5019 18.3601 10.7426 19.1454C10.8204 19.3992 10.8513 19.4989 10.9049 19.6328C10.9316 19.6996 10.9588 19.7609 10.997 19.8408C11.326 19.88 11.6608 19.9001 12.0004 19.9001C12.3399 19.9001 12.6748 19.8799 13.0038 19.8408C13.042 19.7609 13.0692 19.6996 13.0959 19.6328C13.1494 19.4989 13.1804 19.3993 13.2582 19.1454C13.4988 18.3602 13.9216 16.8942 14.2526 15.3083C13.474 15.4198 12.7043 15.4901 12.0004 15.4901Z" fill="url(#paint7_linear_1218_16763)"/>
<path d="M17.5696 14.6408C18.6096 14.382 19.4953 14.1221 20.0356 13.9562C19.2223 16.6202 17.1205 18.722 14.4565 19.5353L14.4629 19.5147C14.7228 18.6667 15.2252 16.9334 15.5829 15.0828C16.2784 14.9483 16.9546 14.7938 17.5696 14.6408Z" fill="url(#paint8_linear_1218_16763)"/>
<path d="M3.98584 13.9626C4.83386 14.2225 6.56718 14.725 8.41788 15.0826C8.77552 16.9333 9.27801 18.6666 9.53791 19.5146L9.54425 19.5353C6.88025 18.722 4.77846 16.6202 3.96516 13.9562L3.98584 13.9626Z" fill="url(#paint9_linear_1218_16763)"/>
<path d="M20.3121 12.5585C20.2831 12.5623 20.2594 12.5662 20.2515 12.568C20.2446 12.5697 20.2338 12.5726 20.2299 12.5736L20.2213 12.5761L20.2166 12.5775L20.2117 12.579L20.2076 12.5803C20.2099 12.5796 20.2566 12.5679 20.3121 12.5585Z" fill="url(#paint10_linear_1218_16763)"/>
<defs>
<filter id="filter0_b_1218_16763" x="-6.5999" y="-7.0999" width="37.1998" height="37.1998" filterUnits="userSpaceOnUse" color-interpolation-filters="sRGB">
<feFlood flood-opacity="0" result="BackgroundImageFix"/>
<feGaussianBlur in="BackgroundImage" stdDeviation="3.6"/>
<feComposite in2="SourceAlpha" operator="in" result="effect1_backgroundBlur_1218_16763"/>
<feBlend mode="normal" in="SourceGraphic" in2="effect1_backgroundBlur_1218_16763" result="shape"/>
</filter>
<linearGradient id="paint0_linear_1218_16763" x1="0" y1="0" x2="22.2112" y2="22.1887" gradientUnits="userSpaceOnUse">
<stop stop-color="white" stop-opacity="0.25"/>
<stop offset="1" stop-color="white" stop-opacity="0"/>
</linearGradient>
<linearGradient id="paint1_linear_1218_16763" x1="11.8589" y1="23.4792" x2="-11.3278" y2="0.750555" gradientUnits="userSpaceOnUse">
<stop stop-color="white"/>
<stop offset="1" stop-color="white" stop-opacity="0.38"/>
</linearGradient>
<linearGradient id="paint2_linear_1218_16763" x1="11.8589" y1="23.4792" x2="-11.3278" y2="0.750555" gradientUnits="userSpaceOnUse">
<stop stop-color="white"/>
<stop offset="1" stop-color="white" stop-opacity="0.38"/>
</linearGradient>
<linearGradient id="paint3_linear_1218_16763" x1="11.8589" y1="23.4792" x2="-11.3278" y2="0.750555" gradientUnits="userSpaceOnUse">
<stop stop-color="white"/>
<stop offset="1" stop-color="white" stop-opacity="0.38"/>
</linearGradient>
<linearGradient id="paint4_linear_1218_16763" x1="11.8589" y1="23.4792" x2="-11.3278" y2="0.750555" gradientUnits="userSpaceOnUse">
<stop stop-color="white"/>
<stop offset="1" stop-color="white" stop-opacity="0.38"/>
</linearGradient>
<linearGradient id="paint5_linear_1218_16763" x1="11.8589" y1="23.4792" x2="-11.3278" y2="0.750555" gradientUnits="userSpaceOnUse">
<stop stop-color="white"/>
<stop offset="1" stop-color="white" stop-opacity="0.38"/>
</linearGradient>
<linearGradient id="paint6_linear_1218_16763" x1="11.8589" y1="23.4792" x2="-11.3278" y2="0.750555" gradientUnits="userSpaceOnUse">
<stop stop-color="white"/>
<stop offset="1" stop-color="white" stop-opacity="0.38"/>
</linearGradient>
<linearGradient id="paint7_linear_1218_16763" x1="11.8589" y1="23.4792" x2="-11.3278" y2="0.750555" gradientUnits="userSpaceOnUse">
<stop stop-color="white"/>
<stop offset="1" stop-color="white" stop-opacity="0.38"/>
</linearGradient>
<linearGradient id="paint8_linear_1218_16763" x1="11.8589" y1="23.4792" x2="-11.3278" y2="0.750555" gradientUnits="userSpaceOnUse">
<stop stop-color="white"/>
<stop offset="1" stop-color="white" stop-opacity="0.38"/>
</linearGradient>
<linearGradient id="paint9_linear_1218_16763" x1="11.8589" y1="23.4792" x2="-11.3278" y2="0.750555" gradientUnits="userSpaceOnUse">
<stop stop-color="white"/>
<stop offset="1" stop-color="white" stop-opacity="0.38"/>
</linearGradient>
<linearGradient id="paint10_linear_1218_16763" x1="11.8589" y1="23.4792" x2="-11.3278" y2="0.750555" gradientUnits="userSpaceOnUse">
<stop stop-color="white"/>
<stop offset="1" stop-color="white" stop-opacity="0.38"/>
</linearGradient>
</defs>
</svg>
