<svg width="47" height="23" viewBox="0 0 47 23" fill="none" xmlns="http://www.w3.org/2000/svg">
<path d="M4.13486 17.097C4.13486 17.8317 4.23028 18.3669 4.42112 18.7028C4.61196 19.0386 4.9194 19.2066 5.34351 19.2066C5.59796 19.2066 5.84179 19.1856 6.07506 19.1436C6.32952 19.1016 6.63696 19.0071 6.99746 18.8602L7.44275 22.0718C7.1035 22.2397 6.58397 22.4076 5.88422 22.5756C5.18448 22.7435 4.46355 22.8275 3.72137 22.8275C2.51272 22.8275 1.59033 22.5546 0.954198 22.0088C0.318066 21.4421 0 20.5185 0 19.238V0.346348H4.13486V17.097ZM9.57207 6.64358H13.7069V22.3867H9.57207V6.64358ZM8.96775 2.20403C8.96775 1.5953 9.19039 1.08103 9.63569 0.661209C10.1022 0.220403 10.7383 0 11.5441 0C12.3498 0 12.9966 0.220403 13.4843 0.661209C13.9932 1.08103 14.2476 1.5953 14.2476 2.20403C14.2476 2.81276 13.9932 3.32704 13.4843 3.74685C12.9966 4.14568 12.3498 4.34509 11.5441 4.34509C10.7383 4.34509 10.1022 4.14568 9.63569 3.74685C9.19039 3.32704 8.96775 2.81276 8.96775 2.20403ZM23.2665 14.893L23.8073 17.3174H23.9663L24.4116 14.83L27.1151 6.64358H31.5681L24.9205 22.5441H22.4078L15.5057 6.64358H20.3085L23.2665 14.893ZM31.941 14.5151C31.941 11.8493 32.5984 9.80271 33.913 8.37532C35.2277 6.92696 37.0725 6.20278 39.4474 6.20278C40.7197 6.20278 41.8223 6.40221 42.7553 6.80101C43.6883 7.19982 44.4623 7.76657 45.0772 8.50127C45.6921 9.21493 46.148 10.0861 46.4448 11.1146C46.7629 12.1431 46.9219 13.2766 46.9219 14.5151C46.9219 17.1809 46.2646 19.238 44.9499 20.6864C43.6565 22.1138 41.8223 22.8275 39.4474 22.8275C38.1751 22.8275 37.0725 22.628 36.1395 22.2292C35.2066 21.8304 34.4219 21.2741 33.7858 20.5605C33.1709 19.8258 32.7044 18.9442 32.3863 17.9156C32.0895 16.8871 31.941 15.7536 31.941 14.5151ZM36.2031 14.5151C36.2031 15.2078 36.2667 15.8481 36.394 16.4358C36.5212 17.0235 36.712 17.5378 36.9665 17.9786C37.2209 18.4194 37.5496 18.7658 37.9525 19.0176C38.3766 19.2486 38.8749 19.364 39.4474 19.364C40.5288 19.364 41.3346 18.9756 41.8647 18.199C42.3948 17.4224 42.6599 16.1944 42.6599 14.5151C42.6599 13.0668 42.416 11.9018 41.9283 11.0202C41.4406 10.1176 40.6137 9.66625 39.4474 9.66625C38.4296 9.66625 37.6344 10.0441 37.0619 10.7998C36.4894 11.5554 36.2031 12.7939 36.2031 14.5151Z" fill="#282828"/>
</svg>
