<svg width="120" height="41" viewBox="0 0 120 41" fill="none" xmlns="http://www.w3.org/2000/svg">
<path fill-rule="evenodd" clip-rule="evenodd" d="M51.2322 28.9915C47.1589 28.9915 43.766 27.5959 41.0535 24.8079C38.3411 22.0169 36.9863 18.582 36.9863 14.4972C36.9863 10.4394 38.3471 7.00754 41.0747 4.20452C43.7993 1.40151 47.2647 0 51.4711 0C53.8781 0 55.9011 0.395298 57.5431 1.1799C59.1821 1.9675 60.7455 3.0965 62.2242 4.56389L58.5743 8.80734C57.3829 7.71428 56.267 6.9177 55.2208 6.42358C54.1745 5.92946 52.9135 5.68389 51.4317 5.68389C49.1033 5.68389 47.1801 6.53139 45.659 8.22637C44.138 9.92136 43.3759 12.0116 43.3759 14.4942C43.3759 16.9499 44.138 19.0342 45.659 20.7411C47.1801 22.4511 49.1033 23.3046 51.4317 23.3046C52.9135 23.3046 54.1956 23.038 55.2812 22.505C56.3668 21.9719 57.5159 21.1424 58.7346 20.0224L62.6234 24.2269C61.1144 25.856 59.4815 27.0569 57.7216 27.8295C55.9616 28.6051 53.7995 28.9915 51.2322 28.9915ZM80.5191 28.9915C76.4459 28.9915 73.053 27.5959 70.3405 24.8079C67.628 22.0169 66.2733 18.582 66.2733 14.4972C66.2733 10.4394 67.6341 7.00754 70.3617 4.20452C73.0863 1.40151 76.5517 0 80.758 0C83.1651 0 85.1881 0.395298 86.8301 1.1799C88.4691 1.9675 90.0325 3.0965 91.5112 4.56389L87.8613 8.80734C86.6698 7.71428 85.554 6.9177 84.5077 6.42358C83.4614 5.92946 82.2004 5.68389 80.7187 5.68389C78.3903 5.68389 76.467 6.53139 74.946 8.22637C73.4249 9.92136 72.6629 12.0116 72.6629 14.4942C72.6629 16.9499 73.4249 19.0342 74.946 20.7411C76.467 22.4511 78.3903 23.3046 80.7187 23.3046C82.2004 23.3046 83.4826 23.038 84.5682 22.505C85.6538 21.9719 86.8029 21.1424 88.0216 20.0224L91.9104 24.2269C90.4014 25.856 88.7685 27.0569 87.0085 27.8295C85.2456 28.6051 83.0834 28.9915 80.5191 28.9915ZM102.896 6.04625V10.9306H110.239C113.335 10.9306 115.733 11.7122 117.442 13.2724C119.147 14.8356 120 16.9499 120 19.6181C120 22.4481 119.087 24.6372 117.263 26.1854C115.437 27.7337 112.9 28.5093 109.646 28.5093H96.788V0.47915H118.098V6.04625H102.896ZM109.603 16.0575H102.896V22.9452H109.643C112.473 22.9452 113.888 21.7563 113.888 19.3815C113.888 17.1655 112.461 16.0575 109.603 16.0575Z" fill="#FF1F1F"/>
<path fill-rule="evenodd" clip-rule="evenodd" d="M12.8066 25.9728L21.6729 25.9639L31.6761 14.8267L22.7675 14.8386L12.8066 25.9728Z" fill="#CC1818"/>
<path fill-rule="evenodd" clip-rule="evenodd" d="M12.8066 25.9728L21.6729 25.9639L31.6761 14.8267L22.7675 14.8386L12.8066 25.9728Z" fill="black" fill-opacity="0.2"/>
<path fill-rule="evenodd" clip-rule="evenodd" d="M12.7979 3.67139L21.7336 3.71032L31.6764 14.8266L22.7678 14.8385L12.7979 3.67139Z" fill="#FF1F1F"/>
<path fill-rule="evenodd" clip-rule="evenodd" d="M0.00585938 25.9728L8.87208 25.9639L18.8753 14.8267L9.96675 14.8386L0.00585938 25.9728Z" fill="#CC1818"/>
<path fill-rule="evenodd" clip-rule="evenodd" d="M0.00585938 25.9728L8.87208 25.9639L18.8753 14.8267L9.96675 14.8386L0.00585938 25.9728Z" fill="black" fill-opacity="0.2"/>
<path fill-rule="evenodd" clip-rule="evenodd" d="M0 3.67139L8.93275 3.71032L18.8755 14.8266L9.96694 14.8385L0 3.67139Z" fill="#FF1F1F"/>
<path d="M1.02686 34.1039L2.29484 36.1366L3.56283 34.1039H4.37796L2.71147 36.7304L4.41781 39.4078H3.59543L2.29484 37.3351L0.994254 39.4078H0.171875L1.87822 36.7304L0.211726 34.1039H1.02686Z" fill="#FF1F1F"/>
<path d="M7.43562 38.7339V36.7049C7.43562 36.5494 7.40422 36.4147 7.34142 36.3005C7.28104 36.184 7.18926 36.0941 7.06609 36.031C6.94291 35.9678 6.79075 35.9362 6.60961 35.9362C6.44055 35.9362 6.29201 35.9654 6.16401 36.0237C6.03842 36.082 5.93939 36.1585 5.86694 36.2532C5.7969 36.3479 5.76188 36.4499 5.76188 36.5592H5.09165C5.09165 36.4183 5.12788 36.2787 5.20034 36.1402C5.2728 36.0018 5.37665 35.8767 5.5119 35.765C5.64957 35.6509 5.8138 35.561 6.0046 35.4955C6.19782 35.4275 6.41277 35.3935 6.64946 35.3935C6.93446 35.3935 7.18564 35.442 7.40301 35.5392C7.62279 35.6363 7.79427 35.7832 7.91745 35.98C8.04304 36.1742 8.10584 36.4183 8.10584 36.7122V38.5481C8.10584 38.6793 8.1167 38.8189 8.13844 38.967C8.16259 39.1152 8.19761 39.2427 8.2435 39.3495V39.4078H7.5443C7.51049 39.3301 7.48392 39.2269 7.4646 39.0982C7.44528 38.967 7.43562 38.8456 7.43562 38.7339ZM7.55155 37.0182L7.55879 37.4917H6.88132C6.69052 37.4917 6.52025 37.5075 6.37051 37.5391C6.22077 37.5682 6.09517 37.6131 5.99374 37.6739C5.8923 37.7346 5.81501 37.8111 5.76188 37.9034C5.70874 37.9932 5.68217 38.0988 5.68217 38.2203C5.68217 38.3441 5.70995 38.4571 5.7655 38.5591C5.82105 38.6611 5.90437 38.7424 6.01547 38.8031C6.12899 38.8614 6.26786 38.8905 6.4321 38.8905C6.63739 38.8905 6.81853 38.8468 6.97552 38.7594C7.13251 38.672 7.25689 38.5651 7.34867 38.4388C7.44286 38.3126 7.49358 38.1899 7.50083 38.0709L7.78703 38.3951C7.77012 38.4971 7.72423 38.6101 7.64936 38.7339C7.57449 38.8578 7.47426 38.9768 7.34867 39.0909C7.22549 39.2026 7.07816 39.2961 6.90668 39.3714C6.73762 39.4443 6.54682 39.4807 6.33428 39.4807C6.06861 39.4807 5.83554 39.4285 5.63508 39.324C5.43703 39.2196 5.28246 39.08 5.17136 38.9051C5.06267 38.7278 5.00833 38.5299 5.00833 38.3113C5.00833 38.1001 5.04939 37.9143 5.13151 37.754C5.21362 37.5913 5.33197 37.4565 5.48654 37.3496C5.64111 37.2404 5.82709 37.1578 6.04446 37.1019C6.26182 37.0461 6.50455 37.0182 6.77264 37.0182H7.55155Z" fill="#FF1F1F"/>
<path d="M9.86652 35.4663H10.5367L10.4788 36.9417C10.4643 37.3156 10.422 37.6386 10.352 37.9106C10.2819 38.1826 10.1926 38.4146 10.0839 38.6064C9.97521 38.7958 9.85324 38.9549 9.71799 39.0836C9.58515 39.2123 9.44748 39.3204 9.30499 39.4078H8.97169L8.9898 38.8578L9.12747 38.8541C9.20717 38.7594 9.28446 38.6623 9.35933 38.5627C9.4342 38.4607 9.50303 38.3405 9.56583 38.2021C9.62862 38.0612 9.68055 37.89 9.72161 37.6884C9.76508 37.4844 9.79286 37.2355 9.80493 36.9417L9.86652 35.4663ZM10.0332 35.4663H12.3916V39.4078H11.7214V36.0892H10.0332V35.4663ZM8.81953 38.8541H12.8952V40.5699H12.225V39.4078H9.48975V40.5699H8.81591L8.81953 38.8541Z" fill="#FF1F1F"/>
<path d="M15.9492 38.7339V36.7049C15.9492 36.5494 15.9178 36.4147 15.855 36.3005C15.7947 36.184 15.7029 36.0941 15.5797 36.031C15.4565 35.9678 15.3044 35.9362 15.1232 35.9362C14.9542 35.9362 14.8056 35.9654 14.6776 36.0237C14.552 36.082 14.453 36.1585 14.3805 36.2532C14.3105 36.3479 14.2755 36.4499 14.2755 36.5592H13.6053C13.6053 36.4183 13.6415 36.2787 13.714 36.1402C13.7864 36.0018 13.8903 35.8767 14.0255 35.765C14.1632 35.6509 14.3274 35.561 14.5182 35.4955C14.7114 35.4275 14.9264 35.3935 15.1631 35.3935C15.4481 35.3935 15.6993 35.442 15.9166 35.5392C16.1364 35.6363 16.3079 35.7832 16.4311 35.98C16.5567 36.1742 16.6194 36.4183 16.6194 36.7122V38.5481C16.6194 38.6793 16.6303 38.8189 16.6521 38.967C16.6762 39.1152 16.7112 39.2427 16.7571 39.3495V39.4078H16.0579C16.0241 39.3301 15.9975 39.2269 15.9782 39.0982C15.9589 38.967 15.9492 38.8456 15.9492 38.7339ZM16.0652 37.0182L16.0724 37.4917H15.3949C15.2041 37.4917 15.0339 37.5075 14.8841 37.5391C14.7344 37.5682 14.6088 37.6131 14.5073 37.6739C14.4059 37.7346 14.3286 37.8111 14.2755 37.9034C14.2224 37.9932 14.1958 38.0988 14.1958 38.2203C14.1958 38.3441 14.2236 38.4571 14.2791 38.5591C14.3347 38.6611 14.418 38.7424 14.5291 38.8031C14.6426 38.8614 14.7815 38.8905 14.9457 38.8905C15.151 38.8905 15.3321 38.8468 15.4891 38.7594C15.6461 38.672 15.7705 38.5651 15.8623 38.4388C15.9565 38.3126 16.0072 38.1899 16.0144 38.0709L16.3006 38.3951C16.2837 38.4971 16.2378 38.6101 16.163 38.7339C16.0881 38.8578 15.9879 38.9768 15.8623 39.0909C15.7391 39.2026 15.5918 39.2961 15.4203 39.3714C15.2512 39.4443 15.0604 39.4807 14.8479 39.4807C14.5822 39.4807 14.3491 39.4285 14.1487 39.324C13.9506 39.2196 13.7961 39.08 13.685 38.9051C13.5763 38.7278 13.5219 38.5299 13.5219 38.3113C13.5219 38.1001 13.563 37.9143 13.6451 37.754C13.7272 37.5913 13.8456 37.4565 14.0002 37.3496C14.1547 37.2404 14.3407 37.1578 14.5581 37.1019C14.7754 37.0461 15.0182 37.0182 15.2863 37.0182H16.0652Z" fill="#FF1F1F"/>
<path d="M22.1805 37.5063V37.5828C22.1805 37.8596 22.1503 38.1146 22.0899 38.3478C22.0295 38.5785 21.9389 38.7788 21.8182 38.9488C21.6998 39.1188 21.5525 39.2512 21.3762 39.3459C21.1999 39.4382 20.9958 39.4843 20.7639 39.4843C20.5731 39.4843 20.4053 39.4588 20.2604 39.4078C20.1155 39.3544 19.9923 39.2779 19.8908 39.1783C19.7918 39.0788 19.7121 38.9598 19.6517 38.8213C19.5938 38.6805 19.5539 38.5226 19.5322 38.3478V36.5992C19.5539 36.4122 19.5938 36.2447 19.6517 36.0965C19.7121 35.9484 19.7918 35.8221 19.8908 35.7177C19.9923 35.6133 20.1143 35.5331 20.2568 35.4773C20.3992 35.4214 20.5659 35.3935 20.7567 35.3935C20.9451 35.3935 21.1141 35.4275 21.2639 35.4955C21.416 35.561 21.5489 35.6558 21.6624 35.7796C21.7783 35.9035 21.8737 36.0528 21.9486 36.2277C22.0259 36.4001 22.0839 36.5944 22.1225 36.8105C22.1611 37.0267 22.1805 37.2586 22.1805 37.5063ZM21.5102 37.5828V37.5063C21.5102 37.3363 21.4982 37.1748 21.474 37.0218C21.4523 36.8664 21.4173 36.7243 21.369 36.5956C21.3231 36.4645 21.2627 36.3503 21.1878 36.2532C21.1129 36.156 21.0224 36.0807 20.9161 36.0273C20.8122 35.9739 20.6927 35.9472 20.5574 35.9472C20.4125 35.9472 20.2918 35.9654 20.1952 36.0018C20.101 36.0382 20.0273 36.0868 19.9742 36.1475C19.921 36.2058 19.8824 36.2677 19.8582 36.3333V38.6173C19.8872 38.6708 19.9295 38.7218 19.985 38.7703C20.0406 38.8165 20.1155 38.8553 20.2097 38.8869C20.3038 38.916 20.4222 38.9306 20.5647 38.9306C20.7338 38.9306 20.8775 38.8966 20.9958 38.8286C21.1166 38.7582 21.2144 38.6611 21.2893 38.5372C21.3665 38.4133 21.4221 38.2701 21.4559 38.1073C21.4921 37.9446 21.5102 37.7698 21.5102 37.5828ZM17.5251 37.5828V37.5063C17.5251 37.2586 17.5445 37.0267 17.5831 36.8105C17.6218 36.5944 17.6797 36.4001 17.757 36.2277C17.8343 36.0528 17.9297 35.9035 18.0432 35.7796C18.1591 35.6558 18.292 35.561 18.4417 35.4955C18.5939 35.4275 18.7642 35.3935 18.9525 35.3935C19.1385 35.3935 19.3003 35.4214 19.438 35.4773C19.5781 35.5331 19.6964 35.6133 19.793 35.7177C19.8896 35.8221 19.9669 35.9484 20.0249 36.0965C20.0829 36.2447 20.1239 36.4122 20.1481 36.5992V38.2786C20.1263 38.4631 20.0865 38.6295 20.0285 38.7776C19.9705 38.9258 19.8933 39.0533 19.7967 39.1601C19.7 39.2645 19.5805 39.3447 19.438 39.4005C19.2979 39.4564 19.1337 39.4843 18.9453 39.4843C18.7134 39.4843 18.5093 39.4382 18.333 39.3459C18.1567 39.2512 18.0082 39.1188 17.8874 38.9488C17.7691 38.7788 17.6785 38.5785 17.6157 38.3478C17.5553 38.1146 17.5251 37.8596 17.5251 37.5828ZM18.199 37.5063V37.5828C18.199 37.7698 18.2147 37.9446 18.2461 38.1073C18.2799 38.2701 18.3318 38.4133 18.4019 38.5372C18.4743 38.6611 18.5685 38.7582 18.6844 38.8286C18.8004 38.8966 18.9429 38.9306 19.1119 38.9306C19.2569 38.9306 19.3764 38.9124 19.4706 38.876C19.5648 38.8395 19.6397 38.7922 19.6952 38.7339C19.7508 38.6756 19.793 38.6149 19.822 38.5518V36.3333C19.7979 36.2677 19.758 36.2058 19.7025 36.1475C19.6493 36.0868 19.5757 36.0382 19.4815 36.0018C19.3873 35.9654 19.2665 35.9472 19.1192 35.9472C18.9501 35.9472 18.8064 35.9885 18.6881 36.071C18.5697 36.1536 18.4743 36.2665 18.4019 36.4098C18.3318 36.5531 18.2799 36.7194 18.2461 36.9089C18.2147 37.0959 18.199 37.295 18.199 37.5063ZM19.4887 40.9232V33.8125H20.1626V40.9232H19.4887Z" fill="#FF1F1F"/>
<path d="M23.7817 38.3405L25.5895 35.4663H26.2634V39.4078H25.5895V36.5337L23.7817 39.4078H23.1151V35.4663H23.7817V38.3405Z" fill="#FF1F1F"/>
<path d="M31.4331 38.5117L32.7663 35.4663H33.4112L31.665 39.4078H31.2013L29.4623 35.4663H30.1072L31.4331 38.5117ZM29.9115 35.4663V39.4078H29.2413V35.4663H29.9115ZM32.933 39.4078V35.4663H33.6068V39.4078H32.933Z" fill="#FF1F1F"/>
<path d="M34.5089 37.4808V37.397C34.5089 37.1129 34.55 36.8494 34.6321 36.6065C34.7142 36.3612 34.8325 36.1487 34.9871 35.969C35.1417 35.7869 35.3289 35.646 35.5486 35.5465C35.7684 35.4445 36.0148 35.3935 36.2877 35.3935C36.563 35.3935 36.8106 35.4445 37.0304 35.5465C37.2526 35.646 37.441 35.7869 37.5955 35.969C37.7525 36.1487 37.8721 36.3612 37.9542 36.6065C38.0363 36.8494 38.0774 37.1129 38.0774 37.397V37.4808C38.0774 37.7649 38.0363 38.0284 37.9542 38.2713C37.8721 38.5141 37.7525 38.7266 37.5955 38.9088C37.441 39.0885 37.2538 39.2293 37.034 39.3313C36.8166 39.4309 36.5703 39.4807 36.2949 39.4807C36.0196 39.4807 35.772 39.4309 35.5523 39.3313C35.3325 39.2293 35.1441 39.0885 34.9871 38.9088C34.8325 38.7266 34.7142 38.5141 34.6321 38.2713C34.55 38.0284 34.5089 37.7649 34.5089 37.4808ZM35.1791 37.397V37.4808C35.1791 37.6775 35.2021 37.8633 35.2479 38.0381C35.2938 38.2106 35.3627 38.3636 35.4544 38.4971C35.5486 38.6307 35.6658 38.7363 35.8059 38.814C35.9459 38.8893 36.109 38.927 36.2949 38.927C36.4785 38.927 36.6391 38.8893 36.7768 38.814C36.9169 38.7363 37.0328 38.6307 37.1246 38.4971C37.2163 38.3636 37.2852 38.2106 37.3311 38.0381C37.3794 37.8633 37.4035 37.6775 37.4035 37.4808V37.397C37.4035 37.2027 37.3794 37.0194 37.3311 36.8469C37.2852 36.6721 37.2151 36.5179 37.1209 36.3843C37.0292 36.2483 36.9132 36.1415 36.7732 36.0637C36.6355 35.986 36.4737 35.9472 36.2877 35.9472C36.1041 35.9472 35.9423 35.986 35.8022 36.0637C35.6646 36.1415 35.5486 36.2483 35.4544 36.3843C35.3627 36.5179 35.2938 36.6721 35.2479 36.8469C35.2021 37.0194 35.1791 37.2027 35.1791 37.397Z" fill="#FF1F1F"/>
<path d="M42.153 36.8761V37.4298H40.3851V36.8761H42.153Z" fill="#FF1F1F"/>
<path d="M46.9025 38.5117L48.2357 35.4663H48.8806L47.1344 39.4078H46.6707L44.9317 35.4663H45.5766L46.9025 38.5117ZM45.381 35.4663V39.4078H44.7107V35.4663H45.381ZM48.4024 39.4078V35.4663H49.0762V39.4078H48.4024Z" fill="#FF1F1F"/>
<path d="M51.2572 38.9998L52.3476 35.4663H53.0649L51.4926 40.0162C51.4564 40.1133 51.4081 40.2177 51.3477 40.3294C51.2898 40.4436 51.2149 40.5517 51.1231 40.6537C51.0313 40.7557 50.9202 40.8382 50.7898 40.9014C50.6618 40.9669 50.5084 40.9997 50.3297 40.9997C50.2766 40.9997 50.209 40.9924 50.1268 40.9779C50.0447 40.9633 49.9868 40.9512 49.9529 40.9414L49.9493 40.395C49.9686 40.3974 49.9988 40.3999 50.0399 40.4023C50.0834 40.4072 50.1136 40.4096 50.1305 40.4096C50.2826 40.4096 50.4118 40.3889 50.5181 40.3477C50.6244 40.3088 50.7137 40.242 50.7862 40.1473C50.8611 40.055 50.9251 39.9275 50.9782 39.7648L51.2572 38.9998ZM50.4565 35.4663L51.4745 38.5263L51.6484 39.2366L51.1666 39.4843L49.7247 35.4663H50.4565Z" fill="#FF1F1F"/>
<path d="M55.5103 37.6739H54.2242L54.217 37.1347H55.2676C55.4753 37.1347 55.648 37.1141 55.7857 37.0728C55.9258 37.0315 56.0308 36.9696 56.1009 36.887C56.1709 36.8044 56.2059 36.7024 56.2059 36.581C56.2059 36.4863 56.1854 36.4037 56.1443 36.3333C56.1057 36.2605 56.0465 36.201 55.9668 36.1548C55.8871 36.1062 55.7881 36.071 55.6697 36.0492C55.5538 36.0249 55.4174 36.0127 55.2604 36.0127H54.4018V39.4078H53.7315V35.4663H55.2604C55.5091 35.4663 55.7325 35.4882 55.9306 35.5319C56.1311 35.5756 56.3013 35.6424 56.4414 35.7322C56.5839 35.8197 56.6926 35.9314 56.7675 36.0674C56.8423 36.2034 56.8798 36.3637 56.8798 36.5482C56.8798 36.6672 56.8556 36.7802 56.8073 36.887C56.759 36.9939 56.6878 37.0886 56.5936 37.1712C56.4994 37.2537 56.3834 37.3217 56.2458 37.3751C56.1081 37.4261 55.9499 37.4589 55.7712 37.4735L55.5103 37.6739ZM55.5103 39.4078H53.9815L54.3148 38.8614H55.5103C55.6963 38.8614 55.8509 38.8383 55.9741 38.7922C56.0972 38.7436 56.189 38.6756 56.2494 38.5882C56.3122 38.4983 56.3436 38.3915 56.3436 38.2676C56.3436 38.1438 56.3122 38.0381 56.2494 37.9507C56.189 37.8609 56.0972 37.7929 55.9741 37.7467C55.8509 37.6981 55.6963 37.6739 55.5103 37.6739H54.4923L54.4996 37.1347H55.7712L56.0139 37.3387C56.2289 37.3557 56.4112 37.4091 56.561 37.499C56.7107 37.5889 56.8242 37.703 56.9015 37.8414C56.9788 37.9774 57.0174 38.1256 57.0174 38.2858C57.0174 38.4704 56.9824 38.6331 56.9124 38.774C56.8447 38.9148 56.7457 39.0326 56.6153 39.1273C56.4849 39.2196 56.3267 39.29 56.1407 39.3386C55.9547 39.3848 55.7446 39.4078 55.5103 39.4078Z" fill="#FF1F1F"/>
<path d="M60.2272 38.7339V36.7049C60.2272 36.5494 60.1958 36.4147 60.133 36.3005C60.0727 36.184 59.9809 36.0941 59.8577 36.031C59.7345 35.9678 59.5824 35.9362 59.4012 35.9362C59.2322 35.9362 59.0836 35.9654 58.9556 36.0237C58.83 36.082 58.731 36.1585 58.6586 36.2532C58.5885 36.3479 58.5535 36.4499 58.5535 36.5592H57.8833C57.8833 36.4183 57.9195 36.2787 57.992 36.1402C58.0644 36.0018 58.1683 35.8767 58.3035 35.765C58.4412 35.6509 58.6054 35.561 58.7962 35.4955C58.9895 35.4275 59.2044 35.3935 59.4411 35.3935C59.7261 35.3935 59.9773 35.442 60.1946 35.5392C60.4144 35.6363 60.5859 35.7832 60.7091 35.98C60.8347 36.1742 60.8975 36.4183 60.8975 36.7122V38.5481C60.8975 38.6793 60.9083 38.8189 60.9301 38.967C60.9542 39.1152 60.9892 39.2427 61.0351 39.3495V39.4078H60.3359C60.3021 39.3301 60.2755 39.2269 60.2562 39.0982C60.2369 38.967 60.2272 38.8456 60.2272 38.7339ZM60.3432 37.0182L60.3504 37.4917H59.673C59.4822 37.4917 59.3119 37.5075 59.1621 37.5391C59.0124 37.5682 58.8868 37.6131 58.7854 37.6739C58.6839 37.7346 58.6066 37.8111 58.5535 37.9034C58.5004 37.9932 58.4738 38.0988 58.4738 38.2203C58.4738 38.3441 58.5016 38.4571 58.5571 38.5591C58.6127 38.6611 58.696 38.7424 58.8071 38.8031C58.9206 38.8614 59.0595 38.8905 59.2237 38.8905C59.429 38.8905 59.6102 38.8468 59.7671 38.7594C59.9241 38.672 60.0485 38.5651 60.1403 38.4388C60.2345 38.3126 60.2852 38.1899 60.2925 38.0709L60.5787 38.3951C60.5617 38.4971 60.5159 38.6101 60.441 38.7339C60.3661 38.8578 60.2659 38.9768 60.1403 39.0909C60.0171 39.2026 59.8698 39.2961 59.6983 39.3714C59.5292 39.4443 59.3384 39.4807 59.1259 39.4807C58.8602 39.4807 58.6272 39.4285 58.4267 39.324C58.2287 39.2196 58.0741 39.08 57.963 38.9051C57.8543 38.7278 57.8 38.5299 57.8 38.3113C57.8 38.1001 57.841 37.9143 57.9231 37.754C58.0053 37.5913 58.1236 37.4565 58.2782 37.3496C58.4327 37.2404 58.6187 37.1578 58.8361 37.1019C59.0535 37.0461 59.2962 37.0182 59.5643 37.0182H60.3432Z" fill="#FF1F1F"/>
<path d="M66.4585 37.5063V37.5828C66.4585 37.8596 66.4283 38.1146 66.3679 38.3478C66.3075 38.5785 66.217 38.7788 66.0962 38.9488C65.9779 39.1188 65.8305 39.2512 65.6542 39.3459C65.4779 39.4382 65.2738 39.4843 65.042 39.4843C64.8512 39.4843 64.6833 39.4588 64.5384 39.4078C64.3935 39.3544 64.2703 39.2779 64.1689 39.1783C64.0698 39.0788 63.9901 38.9598 63.9298 38.8213C63.8718 38.6805 63.8319 38.5226 63.8102 38.3478V36.5992C63.8319 36.4122 63.8718 36.2447 63.9298 36.0965C63.9901 35.9484 64.0698 35.8221 64.1689 35.7177C64.2703 35.6133 64.3923 35.5331 64.5348 35.4773C64.6773 35.4214 64.8439 35.3935 65.0347 35.3935C65.2231 35.3935 65.3922 35.4275 65.5419 35.4955C65.6941 35.561 65.8269 35.6558 65.9404 35.7796C66.0564 35.9035 66.1518 36.0528 66.2266 36.2277C66.3039 36.4001 66.3619 36.5944 66.4005 36.8105C66.4392 37.0267 66.4585 37.2586 66.4585 37.5063ZM65.7883 37.5828V37.5063C65.7883 37.3363 65.7762 37.1748 65.752 37.0218C65.7303 36.8664 65.6953 36.7243 65.647 36.5956C65.6011 36.4645 65.5407 36.3503 65.4658 36.2532C65.391 36.156 65.3004 36.0807 65.1941 36.0273C65.0903 35.9739 64.9707 35.9472 64.8355 35.9472C64.6906 35.9472 64.5698 35.9654 64.4732 36.0018C64.379 36.0382 64.3053 36.0868 64.2522 36.1475C64.1991 36.2058 64.1604 36.2677 64.1363 36.3333V38.6173C64.1652 38.6708 64.2075 38.7218 64.2631 38.7703C64.3186 38.8165 64.3935 38.8553 64.4877 38.8869C64.5819 38.916 64.7002 38.9306 64.8427 38.9306C65.0118 38.9306 65.1555 38.8966 65.2738 38.8286C65.3946 38.7582 65.4924 38.6611 65.5673 38.5372C65.6446 38.4133 65.7001 38.2701 65.7339 38.1073C65.7701 37.9446 65.7883 37.7698 65.7883 37.5828ZM61.8032 37.5828V37.5063C61.8032 37.2586 61.8225 37.0267 61.8611 36.8105C61.8998 36.5944 61.9577 36.4001 62.035 36.2277C62.1123 36.0528 62.2077 35.9035 62.3212 35.7796C62.4372 35.6558 62.57 35.561 62.7197 35.4955C62.8719 35.4275 63.0422 35.3935 63.2306 35.3935C63.4165 35.3935 63.5783 35.4214 63.716 35.4773C63.8561 35.5331 63.9744 35.6133 64.071 35.7177C64.1677 35.8221 64.2449 35.9484 64.3029 36.0965C64.3609 36.2447 64.4019 36.4122 64.4261 36.5992V38.2786C64.4043 38.4631 64.3645 38.6295 64.3065 38.7776C64.2486 38.9258 64.1713 39.0533 64.0747 39.1601C63.9781 39.2645 63.8585 39.3447 63.716 39.4005C63.5759 39.4564 63.4117 39.4843 63.2233 39.4843C62.9915 39.4843 62.7874 39.4382 62.6111 39.3459C62.4347 39.2512 62.2862 39.1188 62.1655 38.9488C62.0471 38.7788 61.9565 38.5785 61.8937 38.3478C61.8334 38.1146 61.8032 37.8596 61.8032 37.5828ZM62.477 37.5063V37.5828C62.477 37.7698 62.4927 37.9446 62.5241 38.1073C62.5579 38.2701 62.6098 38.4133 62.6799 38.5372C62.7523 38.6611 62.8465 38.7582 62.9625 38.8286C63.0784 38.8966 63.2209 38.9306 63.39 38.9306C63.5349 38.9306 63.6544 38.9124 63.7486 38.876C63.8428 38.8395 63.9177 38.7922 63.9732 38.7339C64.0288 38.6756 64.071 38.6149 64.1 38.5518V36.3333C64.0759 36.2677 64.036 36.2058 63.9805 36.1475C63.9273 36.0868 63.8537 36.0382 63.7595 36.0018C63.6653 35.9654 63.5445 35.9472 63.3972 35.9472C63.2281 35.9472 63.0844 35.9885 62.9661 36.071C62.8477 36.1536 62.7523 36.2665 62.6799 36.4098C62.6098 36.5531 62.5579 36.7194 62.5241 36.9089C62.4927 37.0959 62.477 37.295 62.477 37.5063ZM63.7667 40.9232V33.8125H64.4406V40.9232H63.7667Z" fill="#FF1F1F"/>
<path d="M71.842 37.5063V37.5828C71.842 37.8596 71.8118 38.1146 71.7514 38.3478C71.691 38.5785 71.6005 38.7788 71.4797 38.9488C71.3614 39.1188 71.214 39.2512 71.0377 39.3459C70.8614 39.4382 70.6573 39.4843 70.4255 39.4843C70.2347 39.4843 70.0668 39.4588 69.9219 39.4078C69.777 39.3544 69.6538 39.2779 69.5524 39.1783C69.4533 39.0788 69.3736 38.9598 69.3133 38.8213C69.2553 38.6805 69.2154 38.5226 69.1937 38.3478V36.5992C69.2154 36.4122 69.2553 36.2447 69.3133 36.0965C69.3736 35.9484 69.4533 35.8221 69.5524 35.7177C69.6538 35.6133 69.7758 35.5331 69.9183 35.4773C70.0608 35.4214 70.2274 35.3935 70.4182 35.3935C70.6066 35.3935 70.7757 35.4275 70.9254 35.4955C71.0776 35.561 71.2104 35.6558 71.3239 35.7796C71.4398 35.9035 71.5352 36.0528 71.6101 36.2277C71.6874 36.4001 71.7454 36.5944 71.784 36.8105C71.8227 37.0267 71.842 37.2586 71.842 37.5063ZM71.1718 37.5828V37.5063C71.1718 37.3363 71.1597 37.1748 71.1355 37.0218C71.1138 36.8664 71.0788 36.7243 71.0305 36.5956C70.9846 36.4645 70.9242 36.3503 70.8493 36.2532C70.7745 36.156 70.6839 36.0807 70.5776 36.0273C70.4738 35.9739 70.3542 35.9472 70.219 35.9472C70.0741 35.9472 69.9533 35.9654 69.8567 36.0018C69.7625 36.0382 69.6888 36.0868 69.6357 36.1475C69.5826 36.2058 69.5439 36.2677 69.5198 36.3333V38.6173C69.5487 38.6708 69.591 38.7218 69.6466 38.7703C69.7021 38.8165 69.777 38.8553 69.8712 38.8869C69.9654 38.916 70.0837 38.9306 70.2262 38.9306C70.3953 38.9306 70.539 38.8966 70.6573 38.8286C70.7781 38.7582 70.8759 38.6611 70.9508 38.5372C71.0281 38.4133 71.0836 38.2701 71.1174 38.1073C71.1536 37.9446 71.1718 37.7698 71.1718 37.5828ZM67.1867 37.5828V37.5063C67.1867 37.2586 67.206 37.0267 67.2446 36.8105C67.2833 36.5944 67.3412 36.4001 67.4185 36.2277C67.4958 36.0528 67.5912 35.9035 67.7047 35.7796C67.8207 35.6558 67.9535 35.561 68.1032 35.4955C68.2554 35.4275 68.4257 35.3935 68.6141 35.3935C68.8 35.3935 68.9618 35.4214 69.0995 35.4773C69.2396 35.5331 69.3579 35.6133 69.4546 35.7177C69.5512 35.8221 69.6284 35.9484 69.6864 36.0965C69.7444 36.2447 69.7854 36.4122 69.8096 36.5992V38.2786C69.7878 38.4631 69.748 38.6295 69.69 38.7776C69.6321 38.9258 69.5548 39.0533 69.4582 39.1601C69.3616 39.2645 69.242 39.3447 69.0995 39.4005C68.9594 39.4564 68.7952 39.4843 68.6068 39.4843C68.3749 39.4843 68.1709 39.4382 67.9946 39.3459C67.8182 39.2512 67.6697 39.1188 67.549 38.9488C67.4306 38.7788 67.34 38.5785 67.2772 38.3478C67.2169 38.1146 67.1867 37.8596 67.1867 37.5828ZM67.8605 37.5063V37.5828C67.8605 37.7698 67.8762 37.9446 67.9076 38.1073C67.9414 38.2701 67.9933 38.4133 68.0634 38.5372C68.1358 38.6611 68.23 38.7582 68.346 38.8286C68.4619 38.8966 68.6044 38.9306 68.7735 38.9306C68.9184 38.9306 69.0379 38.9124 69.1321 38.876C69.2263 38.8395 69.3012 38.7922 69.3567 38.7339C69.4123 38.6756 69.4546 38.6149 69.4835 38.5518V36.3333C69.4594 36.2677 69.4195 36.2058 69.364 36.1475C69.3108 36.0868 69.2372 36.0382 69.143 36.0018C69.0488 35.9654 68.928 35.9472 68.7807 35.9472C68.6116 35.9472 68.4679 35.9885 68.3496 36.071C68.2312 36.1536 68.1358 36.2665 68.0634 36.4098C67.9933 36.5531 67.9414 36.7194 67.9076 36.9089C67.8762 37.0959 67.8605 37.295 67.8605 37.5063ZM69.1502 40.9232V33.8125H69.8241V40.9232H69.1502Z" fill="#FF1F1F"/>
<path d="M75.0301 38.7339V36.7049C75.0301 36.5494 74.9987 36.4147 74.9359 36.3005C74.8755 36.184 74.7837 36.0941 74.6605 36.031C74.5374 35.9678 74.3852 35.9362 74.2041 35.9362C74.035 35.9362 73.8865 35.9654 73.7585 36.0237C73.6329 36.082 73.5338 36.1585 73.4614 36.2532C73.3913 36.3479 73.3563 36.4499 73.3563 36.5592H72.6861C72.6861 36.4183 72.7223 36.2787 72.7948 36.1402C72.8672 36.0018 72.9711 35.8767 73.1063 35.765C73.244 35.6509 73.4082 35.561 73.599 35.4955C73.7923 35.4275 74.0072 35.3935 74.2439 35.3935C74.5289 35.3935 74.7801 35.442 74.9975 35.5392C75.2172 35.6363 75.3887 35.7832 75.5119 35.98C75.6375 36.1742 75.7003 36.4183 75.7003 36.7122V38.5481C75.7003 38.6793 75.7112 38.8189 75.7329 38.967C75.757 39.1152 75.7921 39.2427 75.8379 39.3495V39.4078H75.1387C75.1049 39.3301 75.0784 39.2269 75.059 39.0982C75.0397 38.967 75.0301 38.8456 75.0301 38.7339ZM75.146 37.0182L75.1532 37.4917H74.4758C74.285 37.4917 74.1147 37.5075 73.965 37.5391C73.8152 37.5682 73.6896 37.6131 73.5882 37.6739C73.4867 37.7346 73.4095 37.8111 73.3563 37.9034C73.3032 37.9932 73.2766 38.0988 73.2766 38.2203C73.2766 38.3441 73.3044 38.4571 73.3599 38.5591C73.4155 38.6611 73.4988 38.7424 73.6099 38.8031C73.7234 38.8614 73.8623 38.8905 74.0265 38.8905C74.2318 38.8905 74.413 38.8468 74.57 38.7594C74.727 38.672 74.8513 38.5651 74.9431 38.4388C75.0373 38.3126 75.088 38.1899 75.0953 38.0709L75.3815 38.3951C75.3646 38.4971 75.3187 38.6101 75.2438 38.7339C75.1689 38.8578 75.0687 38.9768 74.9431 39.0909C74.8199 39.2026 74.6726 39.2961 74.5011 39.3714C74.3321 39.4443 74.1413 39.4807 73.9287 39.4807C73.6631 39.4807 73.43 39.4285 73.2295 39.324C73.0315 39.2196 72.8769 39.08 72.7658 38.9051C72.6571 38.7278 72.6028 38.5299 72.6028 38.3113C72.6028 38.1001 72.6438 37.9143 72.726 37.754C72.8081 37.5913 72.9264 37.4565 73.081 37.3496C73.2356 37.2404 73.4215 37.1578 73.6389 37.1019C73.8563 37.0461 74.099 37.0182 74.3671 37.0182H75.146Z" fill="#FF1F1F"/>
<path d="M77.4827 35.4663V39.4078H76.8125V35.4663H77.4827ZM80.0549 35.4663L78.1964 37.7249H77.2581L77.1566 37.1347H77.9247L79.2398 35.4663H80.0549ZM79.334 39.4078L77.8921 37.6229L78.3232 37.1347L80.1853 39.4078H79.334Z" fill="#FF1F1F"/>
<path d="M81.4931 38.3405L83.3009 35.4663H83.9748V39.4078H83.3009V36.5337L81.4931 39.4078H80.8266V35.4663H81.4931V38.3405Z" fill="#FF1F1F"/>
<path d="M85.8442 37.5281H86.5687L85.4348 39.4078H84.7102L85.8442 37.5281ZM86.4057 35.4663H88.0432V39.4078H87.373V36.0127H86.4057C86.2149 36.0127 86.0591 36.0455 85.9383 36.1111C85.8176 36.1742 85.7294 36.2568 85.6739 36.3588C85.6183 36.4608 85.5906 36.5664 85.5906 36.6757C85.5906 36.7826 85.6159 36.8858 85.6666 36.9854C85.7174 37.0825 85.7971 37.1627 85.9057 37.2258C86.0144 37.2889 86.1545 37.3205 86.326 37.3205H87.5541V37.8742H86.326C86.1014 37.8742 85.9021 37.8439 85.7282 37.7831C85.5543 37.7224 85.407 37.6386 85.2862 37.5318C85.1655 37.4225 85.0737 37.295 85.0109 37.1493C84.9481 37.0012 84.9167 36.8409 84.9167 36.6684C84.9167 36.496 84.9493 36.337 85.0145 36.1912C85.0822 36.0455 85.1788 35.918 85.3044 35.8087C85.4324 35.6995 85.5881 35.6157 85.7717 35.5574C85.9577 35.4967 86.169 35.4663 86.4057 35.4663Z" fill="#FF1F1F"/>
<path d="M90.7205 35.4663V39.4078H90.0466V35.4663H90.7205ZM92.0355 35.4663V36.0127H88.7569V35.4663H92.0355Z" fill="#FF1F1F"/>
<path d="M93.4195 38.3405L95.2272 35.4663H95.9011V39.4078H95.2272V36.5337L93.4195 39.4078H92.7529V35.4663H93.4195V38.3405Z" fill="#FF1F1F"/>
<path d="M98.9442 34.1039H99.6471V38.8359H101.458V34.1039H102.154V38.8359H103.955V34.1039H104.654V39.4078H98.9442V34.1039Z" fill="#FF1F1F"/>
<path d="M106.904 38.9998L107.994 35.4663H108.711L107.139 40.0162C107.103 40.1133 107.055 40.2177 106.994 40.3294C106.936 40.4436 106.861 40.5517 106.77 40.6537C106.678 40.7557 106.567 40.8382 106.436 40.9014C106.308 40.9669 106.155 40.9997 105.976 40.9997C105.923 40.9997 105.855 40.9924 105.773 40.9779C105.691 40.9633 105.633 40.9512 105.599 40.9414L105.596 40.395C105.615 40.3974 105.645 40.3999 105.686 40.4023C105.73 40.4072 105.76 40.4096 105.777 40.4096C105.929 40.4096 106.058 40.3889 106.165 40.3477C106.271 40.3088 106.36 40.242 106.433 40.1473C106.507 40.055 106.571 39.9275 106.625 39.7648L106.904 38.9998ZM106.103 35.4663L107.121 38.5263L107.295 39.2366L106.813 39.4843L105.371 35.4663H106.103Z" fill="#FF1F1F"/>
<path d="M111.57 38.5117L112.903 35.4663H113.548L111.802 39.4078H111.338L109.599 35.4663H110.244L111.57 38.5117ZM110.048 35.4663V39.4078H109.378V35.4663H110.048ZM113.07 39.4078V35.4663H113.743V39.4078H113.07Z" fill="#FF1F1F"/>
<path d="M114.646 37.4808V37.397C114.646 37.1129 114.687 36.8494 114.769 36.6065C114.851 36.3612 114.969 36.1487 115.124 35.969C115.278 35.7869 115.465 35.646 115.685 35.5465C115.905 35.4445 116.151 35.3935 116.424 35.3935C116.7 35.3935 116.947 35.4445 117.167 35.5465C117.389 35.646 117.578 35.7869 117.732 35.969C117.889 36.1487 118.009 36.3612 118.091 36.6065C118.173 36.8494 118.214 37.1129 118.214 37.397V37.4808C118.214 37.7649 118.173 38.0284 118.091 38.2713C118.009 38.5141 117.889 38.7266 117.732 38.9088C117.578 39.0885 117.39 39.2293 117.171 39.3313C116.953 39.4309 116.707 39.4807 116.432 39.4807C116.156 39.4807 115.909 39.4309 115.689 39.3313C115.469 39.2293 115.281 39.0885 115.124 38.9088C114.969 38.7266 114.851 38.5141 114.769 38.2713C114.687 38.0284 114.646 37.7649 114.646 37.4808ZM115.316 37.397V37.4808C115.316 37.6775 115.339 37.8633 115.385 38.0381C115.43 38.2106 115.499 38.3636 115.591 38.4971C115.685 38.6307 115.802 38.7363 115.942 38.814C116.083 38.8893 116.246 38.927 116.432 38.927C116.615 38.927 116.776 38.8893 116.913 38.814C117.053 38.7363 117.169 38.6307 117.261 38.4971C117.353 38.3636 117.422 38.2106 117.468 38.0381C117.516 37.8633 117.54 37.6775 117.54 37.4808V37.397C117.54 37.2027 117.516 37.0194 117.468 36.8469C117.422 36.6721 117.352 36.5179 117.258 36.3843C117.166 36.2483 117.05 36.1415 116.91 36.0637C116.772 35.986 116.61 35.9472 116.424 35.9472C116.241 35.9472 116.079 35.986 115.939 36.0637C115.801 36.1415 115.685 36.2483 115.591 36.3843C115.499 36.5179 115.43 36.6721 115.385 36.8469C115.339 37.0194 115.316 37.2027 115.316 37.397Z" fill="#FF1F1F"/>
<path d="M119.852 34.1039L119.804 37.9106H119.199L119.149 34.1039H119.852ZM119.127 39.069C119.127 38.9598 119.16 38.8675 119.225 38.7922C119.292 38.7169 119.391 38.6793 119.522 38.6793C119.65 38.6793 119.748 38.7169 119.815 38.7922C119.885 38.8675 119.92 38.9598 119.92 39.069C119.92 39.1735 119.885 39.2633 119.815 39.3386C119.748 39.4139 119.65 39.4515 119.522 39.4515C119.391 39.4515 119.292 39.4139 119.225 39.3386C119.16 39.2633 119.127 39.1735 119.127 39.069Z" fill="#FF1F1F"/>
</svg>
