<svg width="20" height="21" viewBox="0 0 20 21" fill="none" xmlns="http://www.w3.org/2000/svg">
<g clip-path="url(#clip0_526_19586)">
<path d="M15.0271 14.3473L18.5963 17.9157L17.4171 19.0948L13.8488 15.5257C12.5211 16.59 10.8696 17.1689 9.16797 17.1665C5.02797 17.1665 1.66797 13.8065 1.66797 9.6665C1.66797 5.5265 5.02797 2.1665 9.16797 2.1665C13.308 2.1665 16.668 5.5265 16.668 9.6665C16.6704 11.3682 16.0915 13.0196 15.0271 14.3473ZM13.3555 13.729C14.4131 12.6414 15.0037 11.1835 15.0013 9.6665C15.0013 6.44317 12.3905 3.83317 9.16797 3.83317C5.94464 3.83317 3.33464 6.44317 3.33464 9.6665C3.33464 12.889 5.94464 15.4998 9.16797 15.4998C10.685 15.5022 12.1429 14.9116 13.2305 13.854L13.3555 13.729Z" fill="#909090"/>
</g>
<defs>
<clipPath id="clip0_526_19586">
<rect width="20" height="20" fill="white" transform="translate(0 0.5)"/>
</clipPath>
</defs>
</svg>
