<svg width="18" height="18" viewBox="0 0 18 18" fill="none" xmlns="http://www.w3.org/2000/svg">
<path d="M14.0257 12.3473L17.5948 15.9157L16.4157 17.0948L12.8473 13.5257C11.5196 14.59 9.86817 15.1689 8.1665 15.1665C4.0265 15.1665 0.666504 11.8065 0.666504 7.6665C0.666504 3.5265 4.0265 0.166504 8.1665 0.166504C12.3065 0.166504 15.6665 3.5265 15.6665 7.6665C15.6689 9.36817 15.09 11.0196 14.0257 12.3473ZM12.354 11.729C13.4116 10.6414 14.0022 9.18353 13.9998 7.6665C13.9998 4.44317 11.389 1.83317 8.1665 1.83317C4.94317 1.83317 2.33317 4.44317 2.33317 7.6665C2.33317 10.889 4.94317 13.4998 8.1665 13.4998C9.68353 13.5022 11.1414 12.9116 12.229 11.854L12.354 11.729Z" fill="#282828"/>
</svg>
