<svg width="40" height="40" viewBox="0 0 40 40" fill="none" xmlns="http://www.w3.org/2000/svg">
<path d="M20.0002 0.833496L27.0435 11.1385L39.0219 14.6535L31.3968 24.5368L31.7552 37.0135L20.0002 32.8168L8.24518 37.0135L8.60352 24.5368L0.978516 14.6535L12.9569 11.1385L20.0002 0.833496ZM16.6669 20.0002H13.3335C13.3335 21.7394 14.0132 23.4098 15.2275 24.655C16.4419 25.9001 18.0948 26.6214 19.8335 26.6649C21.5722 26.7083 23.259 26.0706 24.5341 24.8878C25.8092 23.7049 26.5716 22.0706 26.6585 20.3335L26.6669 20.0002H23.3335C23.3374 20.8651 23.0049 21.6977 22.4062 22.3221C21.8076 22.9464 20.9897 23.3136 20.1253 23.3461C19.2609 23.3785 18.4178 23.0737 17.774 22.496C17.1302 21.9183 16.7362 21.113 16.6752 20.2502L16.6669 20.0002Z" fill="#FF1F1F"/>
</svg>
