<svg width="40" height="40" viewBox="0 0 40 40" fill="none" xmlns="http://www.w3.org/2000/svg">
<g filter="url(#filter0_ii_2332_29290)">
<g clip-path="url(#clip0_2332_29290)">
<path d="M20 40C28.7639 40 33.6359 40 36.8179 36.8179C40 33.6359 40 28.7639 40 20C40 11.2361 40 6.36415 36.8179 3.18207C33.6359 -5.29819e-07 28.7639 0 20 0C11.2361 0 6.36415 -5.29819e-07 3.18207 3.18207C-5.29819e-07 6.36415 0 11.2361 0 20C0 28.7639 -5.29819e-07 33.6359 3.18207 36.8179C6.36415 40 11.2361 40 20 40Z" fill="#050038"/>
<path d="M20 40C28.7639 40 33.6359 40 36.8179 36.8179C40 33.6359 40 28.7639 40 20C40 11.2361 40 6.36415 36.8179 3.18207C33.6359 -5.29819e-07 28.7639 0 20 0C11.2361 0 6.36415 -5.29819e-07 3.18207 3.18207C-5.29819e-07 6.36415 0 11.2361 0 20C0 28.7639 -5.29819e-07 33.6359 3.18207 36.8179C6.36415 40 11.2361 40 20 40Z" fill="url(#paint0_radial_2332_29290)"/>
<path d="M20.0003 14.0537C21.9241 14.0537 22.1864 14.0537 22.9734 14.0537C23.673 14.0537 24.0228 14.2286 24.2851 14.316C24.6349 14.4909 24.8973 14.5784 25.1596 14.8407C25.4219 15.1031 25.5968 15.3654 25.6843 15.7152C25.7717 15.9775 25.8592 16.3273 25.9466 17.0269C25.9466 17.8139 25.9466 17.9888 25.9466 20.0001C25.9466 22.0113 25.9466 22.1862 25.9466 22.9733C25.9466 23.6728 25.7717 24.0226 25.6843 24.285C25.5094 24.6347 25.4219 24.8971 25.1596 25.1594C24.8973 25.4218 24.6349 25.5966 24.2851 25.6841C24.0228 25.7715 23.673 25.859 22.9734 25.9464C22.1864 25.9464 22.0115 25.9464 20.0003 25.9464C17.989 25.9464 17.8141 25.9464 17.0271 25.9464C16.3275 25.9464 15.9777 25.7715 15.7154 25.6841C15.3656 25.5092 15.1032 25.4218 14.8409 25.1594C14.5786 24.8971 14.4037 24.6347 14.3162 24.285C14.2288 24.0226 14.1413 23.6728 14.0539 22.9733C14.0539 22.1862 14.0539 22.0113 14.0539 20.0001C14.0539 17.9888 14.0539 17.8139 14.0539 17.0269C14.0539 16.3273 14.2288 15.9775 14.3162 15.7152C14.4911 15.3654 14.5786 15.1031 14.8409 14.8407C15.1032 14.5784 15.3656 14.4035 15.7154 14.316C15.9777 14.2286 16.3275 14.1411 17.0271 14.0537C17.8141 14.0537 18.0764 14.0537 20.0003 14.0537ZM20.0003 12.742C17.989 12.742 17.8141 12.742 17.0271 12.742C16.2401 12.742 15.7154 12.9169 15.2781 13.0918C14.8409 13.2667 14.4037 13.529 13.9664 13.9663C13.5292 14.4035 13.3543 14.7533 13.092 15.278C12.9171 15.7152 12.8296 16.2399 12.7422 17.0269C12.7422 17.8139 12.7422 18.0762 12.7422 20.0001C12.7422 22.0113 12.7422 22.1862 12.7422 22.9733C12.7422 23.7603 12.9171 24.285 13.092 24.7222C13.2669 25.1594 13.5292 25.5966 13.9664 26.0339C14.4037 26.4711 14.7535 26.646 15.2781 26.9083C15.7154 27.0832 16.2401 27.1707 17.0271 27.2581C17.8141 27.2581 18.0764 27.2581 20.0003 27.2581C21.9241 27.2581 22.1864 27.2581 22.9734 27.2581C23.7605 27.2581 24.2851 27.0832 24.7224 26.9083C25.1596 26.7335 25.5968 26.4711 26.0341 26.0339C26.4713 25.5966 26.6462 25.2469 26.9085 24.7222C27.0834 24.285 27.1709 23.7603 27.2583 22.9733C27.2583 22.1862 27.2583 21.9239 27.2583 20.0001C27.2583 18.0762 27.2583 17.8139 27.2583 17.0269C27.2583 16.2399 27.0834 15.7152 26.9085 15.278C26.7336 14.8407 26.4713 14.4035 26.0341 13.9663C25.5968 13.529 25.247 13.3541 24.7224 13.0918C24.2851 12.9169 23.7605 12.8295 22.9734 12.742C22.1864 12.742 22.0115 12.742 20.0003 12.742Z" fill="white"/>
<path d="M20.0003 16.2399C17.9015 16.2399 16.2401 17.9014 16.2401 20.0001C16.2401 22.0988 17.9015 23.7603 20.0003 23.7603C22.099 23.7603 23.7605 22.0988 23.7605 20.0001C23.7605 17.9014 22.099 16.2399 20.0003 16.2399ZM20.0003 22.4486C18.6886 22.4486 17.5517 21.3992 17.5517 20.0001C17.5517 18.6884 18.6011 17.5516 20.0003 17.5516C21.312 17.5516 22.4488 18.6009 22.4488 20.0001C22.4488 21.3118 21.312 22.4486 20.0003 22.4486Z" fill="white"/>
<path d="M23.8479 17.0269C24.3309 17.0269 24.7224 16.6354 24.7224 16.1524C24.7224 15.6695 24.3309 15.278 23.8479 15.278C23.3649 15.278 22.9734 15.6695 22.9734 16.1524C22.9734 16.6354 23.3649 17.0269 23.8479 17.0269Z" fill="white"/>
<g style="mix-blend-mode:overlay">
<path d="M20 40C28.7639 40 33.6359 40 36.8179 36.8179C40 33.6359 40 28.7639 40 20C40 11.2361 40 6.36415 36.8179 3.18207C33.6359 -5.29819e-07 28.7639 0 20 0C11.2361 0 6.36415 -5.29819e-07 3.18207 3.18207C-5.29819e-07 6.36415 0 11.2361 0 20C0 28.7639 -5.29819e-07 33.6359 3.18207 36.8179C6.36415 40 11.2361 40 20 40Z" fill="url(#paint1_linear_2332_29290)"/>
</g>
<path d="M20 40C28.7639 40 33.6359 40 36.8179 36.8179C40 33.6359 40 28.7639 40 20C40 11.2361 40 6.36414 36.8179 3.18207C33.6359 -6.15274e-07 28.7639 0 20 0C11.2361 0 6.36414 -6.15274e-07 3.18207 3.18207C-6.15274e-07 6.36414 0 11.2361 0 20C0 28.7639 -6.15274e-07 33.6359 3.18207 36.8179C6.36414 40 11.2361 40 20 40Z" fill="url(#paint2_linear_2332_29290)"/>
<g style="mix-blend-mode:soft-light">
<path d="M30.1538 37.2277C32.5709 36.8731 34.0241 36.2177 35.1209 35.1209C36.2177 34.0241 36.8731 32.5709 37.2277 30.1538C37.5941 27.6557 37.6 24.4503 37.6 20C37.6 15.5497 37.5941 12.3443 37.2277 9.84622C36.8731 7.42911 36.2177 5.97593 35.1209 4.87912C34.0241 3.78233 32.5709 3.12695 30.1538 2.77234C27.6557 2.40586 24.4503 2.4 20 2.4C15.5497 2.4 12.3443 2.40586 9.84622 2.77234C7.42912 3.12695 5.97593 3.78232 4.87913 4.87912C4.87913 4.87912 4.87912 4.87913 4.87912 4.87913M30.1538 37.2277L4.87912 4.87913M30.1538 37.2277C27.6557 37.5941 24.4503 37.6 20 37.6C15.5497 37.6 12.3443 37.5941 9.84622 37.2277C7.42911 36.8731 5.97593 36.2177 4.87913 35.1209C3.78233 34.0241 3.12695 32.5709 2.77234 30.1538C2.40586 27.6557 2.4 24.4503 2.4 20C2.4 15.5497 2.40586 12.3443 2.77234 9.84622C3.12695 7.42912 3.78232 5.97593 4.87912 4.87913M30.1538 37.2277L4.87912 4.87913" stroke="url(#paint3_linear_2332_29290)" stroke-width="4.8"/>
</g>
</g>
</g>
<defs>
<filter id="filter0_ii_2332_29290" x="0" y="-3.2" width="40" height="46.4" filterUnits="userSpaceOnUse" color-interpolation-filters="sRGB">
<feFlood flood-opacity="0" result="BackgroundImageFix"/>
<feBlend mode="normal" in="SourceGraphic" in2="BackgroundImageFix" result="shape"/>
<feColorMatrix in="SourceAlpha" type="matrix" values="0 0 0 0 0 0 0 0 0 0 0 0 0 0 0 0 0 0 127 0" result="hardAlpha"/>
<feOffset dy="3.2"/>
<feGaussianBlur stdDeviation="3.2"/>
<feComposite in2="hardAlpha" operator="arithmetic" k2="-1" k3="1"/>
<feColorMatrix type="matrix" values="0 0 0 0 1 0 0 0 0 1 0 0 0 0 1 0 0 0 0.25 0"/>
<feBlend mode="normal" in2="shape" result="effect1_innerShadow_2332_29290"/>
<feColorMatrix in="SourceAlpha" type="matrix" values="0 0 0 0 0 0 0 0 0 0 0 0 0 0 0 0 0 0 127 0" result="hardAlpha"/>
<feOffset dy="-3.2"/>
<feGaussianBlur stdDeviation="3.2"/>
<feComposite in2="hardAlpha" operator="arithmetic" k2="-1" k3="1"/>
<feColorMatrix type="matrix" values="0 0 0 0 0 0 0 0 0 0 0 0 0 0 0 0 0 0 0.12 0"/>
<feBlend mode="normal" in2="effect1_innerShadow_2332_29290" result="effect2_innerShadow_2332_29290"/>
</filter>
<radialGradient id="paint0_radial_2332_29290" cx="0" cy="0" r="1" gradientUnits="userSpaceOnUse" gradientTransform="translate(40.8047 0.812501) scale(92.3719)">
<stop stop-color="#F9ED32"/>
<stop offset="0.36" stop-color="#EE2A7B"/>
<stop offset="0.44" stop-color="#D22A8A"/>
<stop offset="0.6" stop-color="#8B2AB2"/>
<stop offset="0.83" stop-color="#1B2AF0"/>
<stop offset="0.88" stop-color="#002AFF"/>
</radialGradient>
<linearGradient id="paint1_linear_2332_29290" x1="-0.469136" y1="8.00689e-08" x2="10.4812" y2="46.8931" gradientUnits="userSpaceOnUse">
<stop stop-opacity="0"/>
<stop offset="0.605667" stop-opacity="0.0781197"/>
<stop offset="1" stop-opacity="0.26"/>
</linearGradient>
<linearGradient id="paint2_linear_2332_29290" x1="-0.469136" y1="8.00689e-08" x2="10.4812" y2="46.8931" gradientUnits="userSpaceOnUse">
<stop offset="0.140625" stop-color="white" stop-opacity="0.26"/>
<stop offset="0.640625" stop-color="white" stop-opacity="0.0781197"/>
<stop offset="1" stop-color="white" stop-opacity="0"/>
</linearGradient>
<linearGradient id="paint3_linear_2332_29290" x1="20" y1="40" x2="20" y2="33.75" gradientUnits="userSpaceOnUse">
<stop/>
<stop offset="1" stop-opacity="0"/>
</linearGradient>
<clipPath id="clip0_2332_29290">
<rect width="40" height="40" fill="white"/>
</clipPath>
</defs>
</svg>
