<svg width="33" height="32" viewBox="0 0 33 32" fill="none" xmlns="http://www.w3.org/2000/svg">
<g filter="url(#filter0_ii_1500_12839)">
<g clip-path="url(#clip0_1500_12839)">
<path d="M16.5713 32C23.5824 32 27.48 32 30.0256 29.4543C32.5713 26.9087 32.5713 23.0111 32.5713 16C32.5713 8.98889 32.5713 5.09132 30.0256 2.54566C27.48 -4.23855e-07 23.5824 0 16.5713 0C9.56018 0 5.6626 -4.23855e-07 3.11694 2.54566C0.571289 5.09132 0.571289 8.98889 0.571289 16C0.571289 23.0111 0.571289 26.9087 3.11694 29.4543C5.6626 32 9.56018 32 16.5713 32Z" fill="#0A66C2"/>
<g style="mix-blend-mode:overlay">
<path d="M16.5713 32C23.5824 32 27.48 32 30.0256 29.4543C32.5713 26.9087 32.5713 23.0111 32.5713 16C32.5713 8.98889 32.5713 5.09132 30.0256 2.54566C27.48 -4.23855e-07 23.5824 0 16.5713 0C9.56018 0 5.6626 -4.23855e-07 3.11694 2.54566C0.571289 5.09132 0.571289 8.98889 0.571289 16C0.571289 23.0111 0.571289 26.9087 3.11694 29.4543C5.6626 32 9.56018 32 16.5713 32Z" fill="url(#paint0_linear_1500_12839)"/>
</g>
<path d="M16.5713 32C23.5824 32 27.48 32 30.0256 29.4543C32.5713 26.9087 32.5713 23.0111 32.5713 16C32.5713 8.98889 32.5713 5.09132 30.0256 2.54566C27.48 -4.92219e-07 23.5824 0 16.5713 0C9.56018 0 5.6626 -4.92219e-07 3.11694 2.54566C0.571289 5.09132 0.571289 8.98889 0.571289 16C0.571289 23.0111 0.571289 26.9087 3.11694 29.4543C5.6626 32 9.56018 32 16.5713 32Z" fill="url(#paint1_linear_1500_12839)"/>
<g style="mix-blend-mode:soft-light" filter="url(#filter1_f_1500_12839)">
<path d="M29.8271 29.2558C28.6121 30.4708 27.0668 31.0908 24.9322 31.4039C22.7882 31.7185 20.0848 31.7192 16.5713 31.7192C13.0577 31.7192 10.3544 31.7185 8.21033 31.4039C6.07576 31.0908 4.53051 30.4708 3.31551 29.2558C2.10051 28.0408 1.4805 26.4955 1.16734 24.361C0.852792 22.2169 0.852107 19.5136 0.852107 16C0.852107 12.4864 0.852792 9.78309 1.16734 7.63905C1.4805 5.50447 2.10051 3.95922 3.31551 2.74422C4.53051 1.52922 6.07576 0.909208 8.21033 0.596051C10.3544 0.281503 13.0577 0.280818 16.5713 0.280818C20.0848 0.280818 22.7882 0.281503 24.9322 0.596051C27.0668 0.909208 28.6121 1.52922 29.8271 2.74422C31.0421 3.95922 31.6621 5.50447 31.9752 7.63905C32.2898 9.78309 32.2905 12.4864 32.2905 16C32.2905 19.5136 32.2898 22.2169 31.9752 24.361C31.6621 26.4955 31.0421 28.0408 29.8271 29.2558Z" stroke="url(#paint2_linear_1500_12839)" stroke-width="0.561636"/>
</g>
<g style="mix-blend-mode:soft-light" filter="url(#filter2_f_1500_12839)">
<path d="M29.7609 29.1896C28.5652 30.3853 27.0418 30.9999 24.9187 31.3113C22.7829 31.6247 20.0875 31.6256 16.5713 31.6256C13.0551 31.6256 10.3597 31.6247 8.22392 31.3113C6.10082 30.9999 4.57743 30.3853 3.3817 29.1896C2.18598 27.9939 1.57143 26.4705 1.25995 24.3474C0.946627 22.2116 0.945713 19.5162 0.945713 16C0.945713 12.4838 0.946627 9.78836 1.25995 7.65263C1.57143 5.52953 2.18598 4.00614 3.3817 2.81041C4.57743 1.61469 6.10082 1.00014 8.22392 0.688665C10.3597 0.375338 13.0551 0.374424 16.5713 0.374424C20.0875 0.374424 22.7829 0.375338 24.9187 0.688665C27.0418 1.00014 28.5652 1.61469 29.7609 2.81041C30.9566 4.00614 31.5711 5.52953 31.8826 7.65263C32.1959 9.78836 32.1969 12.4838 32.1969 16C32.1969 19.5162 32.1959 22.2116 31.8826 24.3474C31.5711 26.4705 30.9566 27.9939 29.7609 29.1896Z" stroke="url(#paint3_linear_1500_12839)" stroke-width="0.748848"/>
</g>
</g>
</g>
<path d="M12.3418 12.226V24H9.45815V12.226H12.3418ZM9.26228 9.14649C9.26228 8.71847 9.40737 8.363 9.69754 8.08008C9.99498 7.79715 10.394 7.65569 10.8945 7.65569C11.3951 7.65569 11.7905 7.79715 12.0806 8.08008C12.3781 8.363 12.5268 8.71847 12.5268 9.14649C12.5268 9.56724 12.3781 9.91909 12.0806 10.202C11.7905 10.4849 11.3951 10.6264 10.8945 10.6264C10.394 10.6264 9.99498 10.4849 9.69754 10.202C9.40737 9.91909 9.26228 9.56724 9.26228 9.14649ZM17.9952 14.7397V24H15.1224V12.226H17.8211L17.9952 14.7397ZM17.5382 17.6886H16.6894C16.6967 16.8326 16.8127 16.0564 17.0376 15.3599C17.2625 14.6635 17.5781 14.065 17.9843 13.5645C18.3978 13.0639 18.8875 12.6794 19.4533 12.411C20.0192 12.1426 20.6503 12.0084 21.3468 12.0084C21.9126 12.0084 22.4241 12.0882 22.8811 12.2478C23.3381 12.4074 23.7299 12.6613 24.0563 13.0095C24.39 13.3577 24.6439 13.8147 24.818 14.3806C24.9994 14.9392 25.0901 15.6283 25.0901 16.4481V24H22.1955V16.4263C22.1955 15.8895 22.1157 15.4651 21.9561 15.1532C21.8038 14.8412 21.5789 14.62 21.2815 14.4894C20.9913 14.3588 20.6322 14.2935 20.2042 14.2935C19.7617 14.2935 19.3735 14.3842 19.0398 14.5656C18.7134 14.7397 18.4377 14.9827 18.2128 15.2946C17.9952 15.6066 17.8283 15.9657 17.7123 16.3719C17.5962 16.7782 17.5382 17.2171 17.5382 17.6886Z" fill="white"/>
<defs>
<filter id="filter0_ii_1500_12839" x="0.571289" y="-2" width="32" height="36" filterUnits="userSpaceOnUse" color-interpolation-filters="sRGB">
<feFlood flood-opacity="0" result="BackgroundImageFix"/>
<feBlend mode="normal" in="SourceGraphic" in2="BackgroundImageFix" result="shape"/>
<feColorMatrix in="SourceAlpha" type="matrix" values="0 0 0 0 0 0 0 0 0 0 0 0 0 0 0 0 0 0 127 0" result="hardAlpha"/>
<feOffset dy="2"/>
<feGaussianBlur stdDeviation="2"/>
<feComposite in2="hardAlpha" operator="arithmetic" k2="-1" k3="1"/>
<feColorMatrix type="matrix" values="0 0 0 0 1 0 0 0 0 1 0 0 0 0 1 0 0 0 0.25 0"/>
<feBlend mode="normal" in2="shape" result="effect1_innerShadow_1500_12839"/>
<feColorMatrix in="SourceAlpha" type="matrix" values="0 0 0 0 0 0 0 0 0 0 0 0 0 0 0 0 0 0 127 0" result="hardAlpha"/>
<feOffset dy="-2"/>
<feGaussianBlur stdDeviation="2"/>
<feComposite in2="hardAlpha" operator="arithmetic" k2="-1" k3="1"/>
<feColorMatrix type="matrix" values="0 0 0 0 0 0 0 0 0 0 0 0 0 0 0 0 0 0 0.12 0"/>
<feBlend mode="normal" in2="effect1_innerShadow_1500_12839" result="effect2_innerShadow_1500_12839"/>
</filter>
<filter id="filter1_f_1500_12839" x="0.196865" y="-0.374424" width="32.7488" height="32.7488" filterUnits="userSpaceOnUse" color-interpolation-filters="sRGB">
<feFlood flood-opacity="0" result="BackgroundImageFix"/>
<feBlend mode="normal" in="SourceGraphic" in2="BackgroundImageFix" result="shape"/>
<feGaussianBlur stdDeviation="0.187212" result="effect1_foregroundBlur_1500_12839"/>
</filter>
<filter id="filter2_f_1500_12839" x="-0.551983" y="-1.12327" width="34.2465" height="34.2465" filterUnits="userSpaceOnUse" color-interpolation-filters="sRGB">
<feFlood flood-opacity="0" result="BackgroundImageFix"/>
<feBlend mode="normal" in="SourceGraphic" in2="BackgroundImageFix" result="shape"/>
<feGaussianBlur stdDeviation="0.561636" result="effect1_foregroundBlur_1500_12839"/>
</filter>
<linearGradient id="paint0_linear_1500_12839" x1="0.19598" y1="6.40551e-08" x2="8.95626" y2="37.5145" gradientUnits="userSpaceOnUse">
<stop stop-opacity="0"/>
<stop offset="0.605667" stop-opacity="0.0781197"/>
<stop offset="1" stop-opacity="0.26"/>
</linearGradient>
<linearGradient id="paint1_linear_1500_12839" x1="0.19598" y1="6.40551e-08" x2="8.95626" y2="37.5145" gradientUnits="userSpaceOnUse">
<stop offset="0.140625" stop-color="white" stop-opacity="0.26"/>
<stop offset="0.640625" stop-color="white" stop-opacity="0.0781197"/>
<stop offset="1" stop-color="white" stop-opacity="0"/>
</linearGradient>
<linearGradient id="paint2_linear_1500_12839" x1="16.5713" y1="32" x2="16.5713" y2="27" gradientUnits="userSpaceOnUse">
<stop/>
<stop offset="1" stop-opacity="0"/>
</linearGradient>
<linearGradient id="paint3_linear_1500_12839" x1="16.5713" y1="0" x2="16.5713" y2="16" gradientUnits="userSpaceOnUse">
<stop stop-color="white"/>
<stop offset="1" stop-color="white" stop-opacity="0"/>
</linearGradient>
<clipPath id="clip0_1500_12839">
<rect width="32" height="32" fill="white" transform="translate(0.571289)"/>
</clipPath>
</defs>
</svg>
