<svg width="41" height="40" viewBox="0 0 41 40" fill="none" xmlns="http://www.w3.org/2000/svg">
<g filter="url(#filter0_ii_785_22506)">
<g clip-path="url(#clip0_785_22506)">
<path d="M20.5 40C29.2639 40 34.1359 40 37.3179 36.8179C40.5 33.6359 40.5 28.7639 40.5 20C40.5 11.2361 40.5 6.36415 37.3179 3.18207C34.1359 -5.29819e-07 29.2639 0 20.5 0C11.7361 0 6.86415 -5.29819e-07 3.68207 3.18207C0.499999 6.36415 0.5 11.2361 0.5 20C0.5 28.7639 0.499999 33.6359 3.68207 36.8179C6.86415 40 11.7361 40 20.5 40Z" fill="#27A6E5"/>
<path d="M26.3079 14.6306L24.1265 26.0186C24.1265 26.0186 23.8213 26.8081 22.9829 26.4295L17.9499 22.4333L17.9266 22.4215C18.6064 21.7894 23.8782 16.881 24.1086 16.6585C24.4653 16.3139 24.2438 16.1087 23.8297 16.369L16.0427 21.4901L13.0384 20.4433C13.0384 20.4433 12.5657 20.2691 12.5202 19.8905C12.4741 19.5112 13.054 19.306 13.054 19.306L25.3013 14.3307C25.3013 14.3307 26.3079 13.8727 26.3079 14.6306Z" fill="#FEFEFE"/>
<g style="mix-blend-mode:overlay">
<path d="M20.5 40C29.2639 40 34.1359 40 37.3179 36.8179C40.5 33.6359 40.5 28.7639 40.5 20C40.5 11.2361 40.5 6.36415 37.3179 3.18207C34.1359 -5.29819e-07 29.2639 0 20.5 0C11.7361 0 6.86415 -5.29819e-07 3.68207 3.18207C0.499999 6.36415 0.5 11.2361 0.5 20C0.5 28.7639 0.499999 33.6359 3.68207 36.8179C6.86415 40 11.7361 40 20.5 40Z" fill="url(#paint0_linear_785_22506)"/>
</g>
<path d="M20.5 40C29.2639 40 34.1359 40 37.3179 36.8179C40.5 33.6359 40.5 28.7639 40.5 20C40.5 11.2361 40.5 6.36414 37.3179 3.18207C34.1359 -6.15274e-07 29.2639 0 20.5 0C11.7361 0 6.86414 -6.15274e-07 3.68207 3.18207C0.499999 6.36414 0.5 11.2361 0.5 20C0.5 28.7639 0.499999 33.6359 3.68207 36.8179C6.86414 40 11.7361 40 20.5 40Z" fill="url(#paint1_linear_785_22506)"/>
<g style="mix-blend-mode:soft-light" filter="url(#filter1_f_785_22506)">
<path d="M30.6538 37.2277C33.0709 36.8731 34.5241 36.2177 35.6209 35.1209C36.7177 34.0241 37.3731 32.5709 37.7277 30.1538C38.0941 27.6557 38.1 24.4503 38.1 20C38.1 15.5497 38.0941 12.3443 37.7277 9.84622C37.3731 7.42911 36.7177 5.97593 35.6209 4.87912C34.5241 3.78233 33.0709 3.12695 30.6538 2.77234C28.1557 2.40586 24.9503 2.4 20.5 2.4C16.0497 2.4 12.8443 2.40586 10.3462 2.77234C7.92912 3.12695 6.47593 3.78232 5.37913 4.87912C5.37913 4.87913 5.37913 4.87913 5.37912 4.87913M30.6538 37.2277L3.68207 3.18207M30.6538 37.2277C28.1557 37.5941 24.9503 37.6 20.5 37.6C16.0497 37.6 12.8443 37.5941 10.3462 37.2277C7.92911 36.8731 6.47593 36.2177 5.37913 35.1209C4.28233 34.0241 3.62695 32.5709 3.27234 30.1538C2.90586 27.6557 2.9 24.4503 2.9 20C2.9 15.5497 2.90586 12.3443 3.27234 9.84622C3.62695 7.42912 4.28232 5.97593 5.37912 4.87913M30.6538 37.2277L5.37912 4.87913M5.37912 4.87913L3.68207 3.18207M3.68207 3.18207C0.5 6.36415 0.5 11.2361 0.5 20C0.5 28.7639 0.5 33.6359 3.68207 36.8179C6.86414 40 11.7361 40 20.5 40H20.5H20.5C29.2639 40 34.1359 40 37.3179 36.8179C40.5 33.6359 40.5 28.7639 40.5 20V20V20C40.5 11.2361 40.5 6.36414 37.3179 3.18207C34.1359 0 29.2639 0 20.5 0C11.7361 0 6.86415 0 3.68207 3.18207Z" stroke="url(#paint2_linear_785_22506)" stroke-width="4.8"/>
</g>
<g style="mix-blend-mode:soft-light" filter="url(#filter2_f_785_22506)">
<path d="M36.1866 35.6866C34.925 36.9481 33.2851 37.6502 30.7699 38.0192C28.2008 38.3961 24.9275 38.4 20.5 38.4C16.0725 38.4 12.7992 38.3961 10.2301 38.0192C7.71495 37.6502 6.07499 36.9481 4.81344 35.6866C3.5519 34.425 2.8498 32.7851 2.48081 30.2699C2.10391 27.7008 2.1 24.4275 2.1 20C2.1 15.5725 2.10391 12.2992 2.48081 9.7301C2.8498 7.21495 3.5519 5.57499 4.81344 4.31344C6.07499 3.0519 7.71495 2.3498 10.2301 1.98081C12.7992 1.60391 16.0725 1.6 20.5 1.6C24.9275 1.6 28.2008 1.60391 30.7699 1.98081C33.2851 2.3498 34.925 3.0519 36.1866 4.31344C37.4481 5.57499 38.1502 7.21495 38.5192 9.7301C38.8961 12.2992 38.9 15.5725 38.9 20C38.9 24.4275 38.8961 27.7008 38.5192 30.2699C38.1502 32.7851 37.4481 34.425 36.1866 35.6866Z" stroke="url(#paint3_linear_785_22506)" stroke-width="3.2"/>
</g>
</g>
</g>
<defs>
<filter id="filter0_ii_785_22506" x="0.5" y="-2" width="40" height="44" filterUnits="userSpaceOnUse" color-interpolation-filters="sRGB">
<feFlood flood-opacity="0" result="BackgroundImageFix"/>
<feBlend mode="normal" in="SourceGraphic" in2="BackgroundImageFix" result="shape"/>
<feColorMatrix in="SourceAlpha" type="matrix" values="0 0 0 0 0 0 0 0 0 0 0 0 0 0 0 0 0 0 127 0" result="hardAlpha"/>
<feOffset dy="2"/>
<feGaussianBlur stdDeviation="2"/>
<feComposite in2="hardAlpha" operator="arithmetic" k2="-1" k3="1"/>
<feColorMatrix type="matrix" values="0 0 0 0 1 0 0 0 0 1 0 0 0 0 1 0 0 0 0.25 0"/>
<feBlend mode="normal" in2="shape" result="effect1_innerShadow_785_22506"/>
<feColorMatrix in="SourceAlpha" type="matrix" values="0 0 0 0 0 0 0 0 0 0 0 0 0 0 0 0 0 0 127 0" result="hardAlpha"/>
<feOffset dy="-2"/>
<feGaussianBlur stdDeviation="2"/>
<feComposite in2="hardAlpha" operator="arithmetic" k2="-1" k3="1"/>
<feColorMatrix type="matrix" values="0 0 0 0 0 0 0 0 0 0 0 0 0 0 0 0 0 0 0.12 0"/>
<feBlend mode="normal" in2="effect1_innerShadow_785_22506" result="effect2_innerShadow_785_22506"/>
</filter>
<filter id="filter1_f_785_22506" x="-2.7" y="-3.2" width="46.4" height="46.4" filterUnits="userSpaceOnUse" color-interpolation-filters="sRGB">
<feFlood flood-opacity="0" result="BackgroundImageFix"/>
<feBlend mode="normal" in="SourceGraphic" in2="BackgroundImageFix" result="shape"/>
<feGaussianBlur stdDeviation="1.6" result="effect1_foregroundBlur_785_22506"/>
</filter>
<filter id="filter2_f_785_22506" x="-9.1" y="-9.6" width="59.2" height="59.2" filterUnits="userSpaceOnUse" color-interpolation-filters="sRGB">
<feFlood flood-opacity="0" result="BackgroundImageFix"/>
<feBlend mode="normal" in="SourceGraphic" in2="BackgroundImageFix" result="shape"/>
<feGaussianBlur stdDeviation="4.8" result="effect1_foregroundBlur_785_22506"/>
</filter>
<linearGradient id="paint0_linear_785_22506" x1="0.030864" y1="8.00689e-08" x2="10.9812" y2="46.8931" gradientUnits="userSpaceOnUse">
<stop stop-opacity="0"/>
<stop offset="0.605667" stop-opacity="0.0781197"/>
<stop offset="1" stop-opacity="0.26"/>
</linearGradient>
<linearGradient id="paint1_linear_785_22506" x1="0.030864" y1="8.00689e-08" x2="10.9812" y2="46.8931" gradientUnits="userSpaceOnUse">
<stop offset="0.140625" stop-color="white" stop-opacity="0.26"/>
<stop offset="0.640625" stop-color="white" stop-opacity="0.0781197"/>
<stop offset="1" stop-color="white" stop-opacity="0"/>
</linearGradient>
<linearGradient id="paint2_linear_785_22506" x1="20.5" y1="40" x2="20.5" y2="33.75" gradientUnits="userSpaceOnUse">
<stop/>
<stop offset="1" stop-opacity="0"/>
</linearGradient>
<linearGradient id="paint3_linear_785_22506" x1="20.5" y1="0" x2="20.5" y2="20" gradientUnits="userSpaceOnUse">
<stop stop-color="white"/>
<stop offset="1" stop-color="white" stop-opacity="0"/>
</linearGradient>
<clipPath id="clip0_785_22506">
<rect width="40" height="40" fill="white" transform="translate(0.5)"/>
</clipPath>
</defs>
</svg>
