<svg width="41" height="40" viewBox="0 0 41 40" fill="none" xmlns="http://www.w3.org/2000/svg">
<g filter="url(#filter0_ii_785_22491)">
<g clip-path="url(#clip0_785_22491)">
<path d="M20.5 40C29.2639 40 34.1359 40 37.3179 36.8179C40.5 33.6359 40.5 28.7639 40.5 20C40.5 11.2361 40.5 6.36415 37.3179 3.18207C34.1359 -5.29819e-07 29.2639 0 20.5 0C11.7361 0 6.86415 -5.29819e-07 3.68207 3.18207C0.499999 6.36415 0.5 11.2361 0.5 20C0.5 28.7639 0.499999 33.6359 3.68207 36.8179C6.86415 40 11.7361 40 20.5 40Z" fill="#0077FF"/>
<path d="M21.2146 25.0806C15.759 25.0806 12.6472 21.2663 12.5176 14.9193H15.2503C15.3401 19.5778 17.3548 21.5511 18.9506 21.958V14.9193H21.5237V18.937C23.0996 18.7641 24.7552 16.9333 25.3137 14.9193H27.8869C27.6764 15.9638 27.2569 16.9528 26.6545 17.8244C26.0522 18.6959 25.28 19.4314 24.3862 19.9847C25.3839 20.4903 26.2651 21.2059 26.9717 22.0843C27.6782 22.9627 28.1942 23.9839 28.4853 25.0806H25.6528C25.3914 24.1281 24.8602 23.2754 24.1257 22.6294C23.3912 21.9835 22.486 21.573 21.5237 21.4494V25.0806H21.2146Z" fill="white"/>
<g style="mix-blend-mode:overlay">
<path d="M20.5 40C29.2639 40 34.1359 40 37.3179 36.8179C40.5 33.6359 40.5 28.7639 40.5 20C40.5 11.2361 40.5 6.36415 37.3179 3.18207C34.1359 -5.29819e-07 29.2639 0 20.5 0C11.7361 0 6.86415 -5.29819e-07 3.68207 3.18207C0.499999 6.36415 0.5 11.2361 0.5 20C0.5 28.7639 0.499999 33.6359 3.68207 36.8179C6.86415 40 11.7361 40 20.5 40Z" fill="url(#paint0_linear_785_22491)"/>
</g>
<path d="M20.5 40C29.2639 40 34.1359 40 37.3179 36.8179C40.5 33.6359 40.5 28.7639 40.5 20C40.5 11.2361 40.5 6.36414 37.3179 3.18207C34.1359 -6.15274e-07 29.2639 0 20.5 0C11.7361 0 6.86414 -6.15274e-07 3.68207 3.18207C0.499999 6.36414 0.5 11.2361 0.5 20C0.5 28.7639 0.499999 33.6359 3.68207 36.8179C6.86414 40 11.7361 40 20.5 40Z" fill="url(#paint1_linear_785_22491)"/>
<g style="mix-blend-mode:soft-light" filter="url(#filter1_f_785_22491)">
<path d="M30.6538 37.2277C33.0709 36.8731 34.5241 36.2177 35.6209 35.1209C36.7177 34.0241 37.3731 32.5709 37.7277 30.1538C38.0941 27.6557 38.1 24.4503 38.1 20C38.1 15.5497 38.0941 12.3443 37.7277 9.84622C37.3731 7.42911 36.7177 5.97593 35.6209 4.87912C34.5241 3.78233 33.0709 3.12695 30.6538 2.77234C28.1557 2.40586 24.9503 2.4 20.5 2.4C16.0497 2.4 12.8443 2.40586 10.3462 2.77234C7.92912 3.12695 6.47593 3.78232 5.37913 4.87912C5.37913 4.87913 5.37913 4.87913 5.37912 4.87913M30.6538 37.2277L3.68207 3.18207M30.6538 37.2277C28.1557 37.5941 24.9503 37.6 20.5 37.6C16.0497 37.6 12.8443 37.5941 10.3462 37.2277C7.92911 36.8731 6.47593 36.2177 5.37913 35.1209C4.28233 34.0241 3.62695 32.5709 3.27234 30.1538C2.90586 27.6557 2.9 24.4503 2.9 20C2.9 15.5497 2.90586 12.3443 3.27234 9.84622C3.62695 7.42912 4.28232 5.97593 5.37912 4.87913M30.6538 37.2277L5.37912 4.87913M5.37912 4.87913L3.68207 3.18207M3.68207 3.18207C0.5 6.36415 0.5 11.2361 0.5 20C0.5 28.7639 0.5 33.6359 3.68207 36.8179C6.86414 40 11.7361 40 20.5 40H20.5H20.5C29.2639 40 34.1359 40 37.3179 36.8179C40.5 33.6359 40.5 28.7639 40.5 20V20V20C40.5 11.2361 40.5 6.36414 37.3179 3.18207C34.1359 0 29.2639 0 20.5 0C11.7361 0 6.86415 0 3.68207 3.18207Z" stroke="url(#paint2_linear_785_22491)" stroke-width="4.8"/>
</g>
<g style="mix-blend-mode:soft-light" filter="url(#filter2_f_785_22491)">
<path d="M30.5377 36.4361C32.8567 36.0959 34.1231 35.4872 35.0552 34.5552C35.9872 33.6231 36.5959 32.3567 36.9361 30.0377C37.2922 27.6107 37.3 24.4731 37.3 20C37.3 15.5269 37.2922 12.3893 36.9361 9.96235C36.5959 7.64328 35.9872 6.37687 35.0552 5.44481C34.1231 4.51276 32.8567 3.90409 30.5377 3.56387C28.1107 3.20781 24.9731 3.2 20.5 3.2C16.0269 3.2 12.8893 3.20781 10.4623 3.56387C8.14328 3.90409 6.87687 4.51275 5.94481 5.44481C5.94481 5.44481 5.94481 5.44481 5.94481 5.44481M30.5377 36.4361L5.94481 5.44481M30.5377 36.4361C28.1107 36.7922 24.9731 36.8 20.5 36.8C16.0269 36.8 12.8893 36.7922 10.4623 36.4361C8.14328 36.0959 6.87687 35.4872 5.94481 34.5552C5.01276 33.6231 4.40409 32.3567 4.06387 30.0377C3.70781 27.6107 3.7 24.4731 3.7 20C3.7 15.5269 3.70781 12.3893 4.06387 9.96235C4.40409 7.64328 5.01275 6.37687 5.94481 5.44481M30.5377 36.4361L5.94481 5.44481" stroke="url(#paint3_linear_785_22491)" stroke-width="6.4"/>
</g>
</g>
</g>
<defs>
<filter id="filter0_ii_785_22491" x="0.5" y="-2" width="40" height="44" filterUnits="userSpaceOnUse" color-interpolation-filters="sRGB">
<feFlood flood-opacity="0" result="BackgroundImageFix"/>
<feBlend mode="normal" in="SourceGraphic" in2="BackgroundImageFix" result="shape"/>
<feColorMatrix in="SourceAlpha" type="matrix" values="0 0 0 0 0 0 0 0 0 0 0 0 0 0 0 0 0 0 127 0" result="hardAlpha"/>
<feOffset dy="2"/>
<feGaussianBlur stdDeviation="2"/>
<feComposite in2="hardAlpha" operator="arithmetic" k2="-1" k3="1"/>
<feColorMatrix type="matrix" values="0 0 0 0 1 0 0 0 0 1 0 0 0 0 1 0 0 0 0.25 0"/>
<feBlend mode="normal" in2="shape" result="effect1_innerShadow_785_22491"/>
<feColorMatrix in="SourceAlpha" type="matrix" values="0 0 0 0 0 0 0 0 0 0 0 0 0 0 0 0 0 0 127 0" result="hardAlpha"/>
<feOffset dy="-2"/>
<feGaussianBlur stdDeviation="2"/>
<feComposite in2="hardAlpha" operator="arithmetic" k2="-1" k3="1"/>
<feColorMatrix type="matrix" values="0 0 0 0 0 0 0 0 0 0 0 0 0 0 0 0 0 0 0.12 0"/>
<feBlend mode="normal" in2="effect1_innerShadow_785_22491" result="effect2_innerShadow_785_22491"/>
</filter>
<filter id="filter1_f_785_22491" x="-2.7" y="-3.2" width="46.4" height="46.4" filterUnits="userSpaceOnUse" color-interpolation-filters="sRGB">
<feFlood flood-opacity="0" result="BackgroundImageFix"/>
<feBlend mode="normal" in="SourceGraphic" in2="BackgroundImageFix" result="shape"/>
<feGaussianBlur stdDeviation="1.6" result="effect1_foregroundBlur_785_22491"/>
</filter>
<filter id="filter2_f_785_22491" x="-9.1" y="-9.6" width="59.2" height="59.2" filterUnits="userSpaceOnUse" color-interpolation-filters="sRGB">
<feFlood flood-opacity="0" result="BackgroundImageFix"/>
<feBlend mode="normal" in="SourceGraphic" in2="BackgroundImageFix" result="shape"/>
<feGaussianBlur stdDeviation="4.8" result="effect1_foregroundBlur_785_22491"/>
</filter>
<linearGradient id="paint0_linear_785_22491" x1="0.030864" y1="8.00689e-08" x2="10.9812" y2="46.8931" gradientUnits="userSpaceOnUse">
<stop stop-opacity="0"/>
<stop offset="0.605667" stop-opacity="0.0781197"/>
<stop offset="1" stop-opacity="0.26"/>
</linearGradient>
<linearGradient id="paint1_linear_785_22491" x1="0.030864" y1="8.00689e-08" x2="10.9812" y2="46.8931" gradientUnits="userSpaceOnUse">
<stop offset="0.140625" stop-color="white" stop-opacity="0.26"/>
<stop offset="0.640625" stop-color="white" stop-opacity="0.0781197"/>
<stop offset="1" stop-color="white" stop-opacity="0"/>
</linearGradient>
<linearGradient id="paint2_linear_785_22491" x1="20.5" y1="40" x2="20.5" y2="33.75" gradientUnits="userSpaceOnUse">
<stop/>
<stop offset="1" stop-opacity="0"/>
</linearGradient>
<linearGradient id="paint3_linear_785_22491" x1="20.5" y1="0" x2="20.5" y2="20" gradientUnits="userSpaceOnUse">
<stop stop-color="white"/>
<stop offset="1" stop-color="white" stop-opacity="0"/>
</linearGradient>
<clipPath id="clip0_785_22491">
<rect width="40" height="40" fill="white" transform="translate(0.5)"/>
</clipPath>
</defs>
</svg>
